<?xml version="1.0" standalone="no"?>
<!DOCTYPE svg PUBLIC "-//W3C//DTD SVG 20010904//EN"
 "http://www.w3.org/TR/2001/REC-SVG-20010904/DTD/svg10.dtd">
<svg version="1.0" xmlns="http://www.w3.org/2000/svg"
 width="467.000000pt" height="467.000000pt" viewBox="0 0 467.000000 467.000000"
 preserveAspectRatio="xMidYMid meet">
<metadata>
Created by potrace 1.11, written by Peter Selinger 2001-2013
</metadata>
<g transform="translate(0.000000,467.000000) scale(0.100000,-0.100000)"
fill="#000000" stroke="none">
<path d="M2064 4622 c-91 -23 -199 -79 -294 -150 -89 -67 -371 -346 -456 -452
-124 -153 -221 -318 -259 -440 -16 -50 -24 -60 -94 -112 -111 -83 -188 -155
-459 -428 -324 -326 -411 -436 -462 -585 -31 -89 -34 -111 -34 -220 -1 -226
81 -372 379 -671 275 -277 485 -423 698 -485 69 -21 79 -27 108 -68 70 -99
211 -251 452 -490 275 -272 310 -303 408 -367 211 -137 439 -162 640 -70 131
60 227 135 439 346 257 256 418 492 472 694 11 43 21 54 93 109 119 90 215
179 475 442 290 293 259 260 329 355 180 242 211 472 96 716 -51 107 -138 216
-312 392 -169 170 -321 297 -452 376 -94 57 -249 122 -315 131 -56 9 -57 10
-148 120 -131 158 -621 640 -728 716 -69 49 -181 108 -241 128 -99 32 -238 37
-335 13z m255 -289 c97 -30 189 -101 412 -320 243 -239 215 -211 299 -299 181
-190 271 -320 305 -438 47 -161 -36 -318 -331 -624 l-109 -113 -360 357 c-422
418 -494 485 -623 581 -162 122 -310 183 -441 183 -34 0 -61 3 -61 8 0 4 37
57 82 117 90 119 347 382 448 459 145 108 241 131 379 89z m-714 -998 c95 -46
233 -155 393 -311 l122 -119 -347 -351 c-376 -379 -447 -452 -508 -529 -22
-28 -43 -52 -46 -55 -18 -14 -124 -189 -151 -247 -35 -77 -58 -176 -58 -250 0
-29 -2 -53 -6 -53 -10 0 -122 80 -200 142 -85 68 -300 279 -375 368 -169 200
-184 356 -52 554 55 84 513 554 667 686 243 207 388 250 561 165z m2122 -94
c104 -68 192 -142 318 -268 260 -258 327 -359 328 -492 2 -169 -52 -249 -418
-617 -238 -239 -317 -313 -435 -408 -9 -7 -43 -29 -76 -49 -199 -123 -325
-105 -559 78 -79 62 -325 292 -325 304 0 3 127 134 281 291 155 157 329 335
387 395 300 309 409 511 400 738 -2 48 0 87 3 87 4 0 47 -26 96 -59z m-1218
-722 l184 -180 -26 -27 c-14 -15 -91 -93 -170 -173 l-144 -146 -186 183 -186
183 167 171 c92 93 169 170 172 170 4 0 88 -81 189 -181z m83 -1160 c192 -173
365 -276 509 -303 41 -8 75 -15 77 -15 1 -1 20 -1 42 -1 39 0 40 -1 28 -22 -7
-12 -16 -27 -21 -32 -4 -6 -28 -40 -53 -76 -76 -106 -169 -207 -355 -386 -259
-248 -430 -273 -664 -96 -85 65 -560 538 -658 655 -88 106 -171 238 -189 302
-46 167 44 333 344 640 l127 131 363 -359 c200 -198 402 -395 450 -438z"/>
</g>
</svg>
