<?xml version="1.0" encoding="UTF-8"?>
<svg xmlns="http://www.w3.org/2000/svg" width="32" height="32" viewBox="0 0 32 32" fill="none">
  <g clip-path="url(#clip0_5621_1546)">
    <path d="M24.9398 1.00195H7.06205C3.71371 1.00195 1.00281 3.71285 1.00281 7.06119V24.9427C1.00281 28.2873 3.71371 30.9982 7.06205 30.9982H24.9436C28.2882 30.9982 31.0028 28.2873 31.0028 24.939V7.06119C30.9991 3.71285 28.2882 1.00195 24.9398 1.00195Z" fill="url(#paint0_linear_5621_1546)"></path>
    <path d="M15.8739 7.89357L16.4813 6.84369C16.8563 6.1875 17.6924 5.96631 18.3486 6.34125C19.0048 6.71619 19.226 7.55232 18.851 8.20852L12.998 18.3398H17.2312C18.6035 18.3398 19.3722 19.9521 18.776 21.0694H6.36513C5.60775 21.0694 5.00031 20.462 5.00031 19.7046C5.00031 18.9472 5.60775 18.3398 6.36513 18.3398H9.84472L14.2992 10.6195L12.9081 8.20477C12.5332 7.54857 12.7544 6.71994 13.4106 6.3375C14.0668 5.96256 14.8954 6.18375 15.2778 6.83994L15.8739 7.89357Z" fill="white"></path>
    <path d="M10.6115 22.4757L9.29913 24.7517C8.92418 25.4079 8.08805 25.6291 7.43186 25.2541C6.77567 24.8792 6.55448 24.043 6.92942 23.3868L7.9043 21.6996C9.00663 21.3584 9.90276 21.6208 10.6115 22.4757Z" fill="white"></path>
    <path d="M21.9101 18.3475H25.4609C26.2183 18.3475 26.8257 18.9549 26.8257 19.7123C26.8257 20.4697 26.2183 21.0771 25.4609 21.0771H23.4886L24.8197 23.3868C25.1946 24.043 24.9735 24.8716 24.3173 25.2541C23.6611 25.629 22.8324 25.4078 22.45 24.7516C20.2078 20.8634 18.5242 17.9538 17.4069 16.0153C16.2632 14.043 17.0807 12.0632 17.8868 11.3921C18.783 12.9294 20.1216 15.2504 21.9101 18.3475Z" fill="white"></path>
  </g>
  <defs>
    <linearGradient id="paint0_linear_5621_1546" x1="16.0028" y1="1.00195" x2="16.0028" y2="30.9982" gradientUnits="userSpaceOnUse">
      <stop stop-color="#00BFFC"></stop>
      <stop offset="1" stop-color="#0073F6"></stop>
    </linearGradient>
    <clipPath id="clip0_5621_1546">
      <rect width="30" height="30" fill="white" transform="translate(1 1)"></rect>
    </clipPath>
  </defs>
</svg>
