<?xml version="1.0" encoding="UTF-8"?>
<svg xmlns="http://www.w3.org/2000/svg" width="32" height="32" viewBox="0 0 32 32" fill="none">
  <g clip-path="url(#clip0_5621_1704)">
    <path d="M29.9045 10.3758H16.0051C12.8987 10.3728 10.3779 12.8886 10.3748 15.995C10.3739 16.9599 10.6211 17.9088 11.0929 18.7504L4.14319 6.82596C9.20505 0.274587 18.6195 -0.932858 25.1708 4.12901C27.2748 5.75462 28.9085 7.91059 29.9045 10.3758Z" fill="#F44336"></path>
    <path d="M30.9993 16.0007C30.9923 24.2818 24.281 30.9931 15.9999 31.0001C15.3728 31.0024 14.7462 30.9606 14.125 30.8751L20.8747 18.8131C22.4217 16.12 21.4995 12.683 18.8123 11.1259C17.9615 10.6334 16.9955 10.3746 16.0124 10.376H29.8993C30.6292 12.1613 31.0029 14.072 30.9993 16.0007Z" fill="#FFC107"></path>
    <path d="M20.8753 18.8127L14.1256 30.8746H14.1131C5.89935 29.8369 0.0820717 22.337 1.11984 14.1232C1.45574 11.4646 2.49813 8.94469 4.13857 6.82568L11.0882 18.7502L11.1257 18.8127C12.6755 21.5049 16.1144 22.4311 18.8066 20.8813C19.6666 20.3863 20.3803 19.6726 20.8753 18.8127Z" fill="#4CAF50"></path>
    <path d="M20.877 18.8132C19.3272 21.5054 15.8883 22.4316 13.1961 20.8818C12.3361 20.3868 11.6224 19.6731 11.1274 18.8132L11.0899 18.7506C9.57114 16.0407 10.5368 12.6128 13.2467 11.094C14.0885 10.6223 15.0373 10.375 16.0022 10.376H16.0146C16.9977 10.3746 17.9637 10.6334 18.8145 11.1259C21.5018 12.6831 22.4239 16.1201 20.877 18.8132Z" fill="#F44336"></path>
    <path d="M20.877 18.8132C19.3272 21.5054 15.8883 22.4316 13.1961 20.8818C12.3361 20.3868 11.6224 19.6731 11.1274 18.8132L11.0899 18.7506C9.57114 16.0407 10.5368 12.6128 13.2467 11.094C14.0885 10.6223 15.0373 10.375 16.0022 10.376H16.0146C16.9977 10.3746 17.9637 10.6334 18.8145 11.1259C21.5018 12.6831 22.4239 16.1201 20.877 18.8132Z" fill="#2196F3"></path>
    <path d="M15.9803 22.2499C14.8906 22.2498 13.8202 21.9626 12.8767 21.4175C11.9253 20.8672 11.1352 20.0767 10.5855 19.1251C8.85973 16.1359 9.8839 12.3136 12.8731 10.5878C13.8242 10.0387 14.9033 9.7499 16.0016 9.75049C19.4532 9.7478 22.2535 12.5438 22.2561 15.9954C22.257 17.0941 21.9681 18.1736 21.4188 19.1251C20.2924 21.0615 18.2205 22.252 15.9803 22.2499ZM16.0128 11.0004C14.2191 10.9909 12.5585 11.9455 11.6642 13.5003C10.2836 15.8944 11.1051 18.9544 13.4991 20.335C15.8931 21.7157 18.9532 20.8942 20.3338 18.5001C21.7144 16.1088 20.8951 13.051 18.5038 11.6703C17.7467 11.2332 16.8882 11.0022 16.014 11.0005H16.0128V11.0004Z" fill="#FAFAFA"></path>
  </g>
  <defs>
    <clipPath id="clip0_5621_1704">
      <rect width="30" height="30" fill="white" transform="translate(1 1)"></rect>
    </clipPath>
  </defs>
</svg>
