<svg width="145" height="69" viewBox="0 0 145 69" fill="none" xmlns="http://www.w3.org/2000/svg">
<ellipse cx="33.5955" cy="34.499" rx="22.901" ry="23.0048" fill="url(#paint0_linear_13515_4667)"/>
<path d="M53.3197 16.2951C57.4766 15.6842 60.4257 16.194 61.4593 18.0021C63.3941 21.3886 58.0668 28.3721 48.7961 35.4752C48.5153 35.6904 48.3685 36.0361 48.3685 36.3898V36.3898C48.3683 39.6134 45.7671 42.2265 42.558 42.2267C42.3963 42.2267 42.2361 42.22 42.0778 42.207C40.6471 42.0888 39.1253 42.0309 37.8851 42.7541V42.7541C22.2605 51.8649 7.48119 55.5553 4.87439 50.9972C3.80541 49.1272 4.95084 46.1597 7.75232 42.6808C8.14753 42.1904 8.90651 42.2648 9.21911 42.8117C9.41826 43.1602 9.36531 43.5964 9.09997 43.8976C7.54556 45.6604 6.87489 47.032 7.32165 47.8136C8.75813 50.3237 21.1799 45.795 35.0668 37.6974C35.5462 37.4178 36.0204 37.1364 36.4902 36.8555C36.6528 36.7583 36.7465 36.5792 36.7465 36.3898V36.3898C36.7465 33.1659 39.3486 30.5519 42.558 30.5519V30.5519C44.2768 30.552 46.139 30.6037 47.5235 29.5852C54.4488 24.4908 58.5631 20.1529 57.6127 18.4884C57.1865 17.743 55.7918 17.6195 53.6781 18.0246C53.2939 18.0982 52.9007 17.9276 52.7064 17.588C52.4025 17.0566 52.7139 16.3841 53.3197 16.2951Z" fill="white"/>
<ellipse cx="42.5571" cy="36.3894" rx="2.90556" ry="2.91874" fill="#87AB49"/>
<g opacity="0.32">
<path d="M21.862 26.6319C20.4526 30.1278 20.8972 33.8143 19.1685 33.111C17.4398 32.4078 17.181 29.0037 18.5904 25.5078C19.9998 22.0119 22.5437 19.748 24.2724 20.4513C26.0011 21.1546 23.2714 23.136 21.862 26.6319Z" fill="#EAEBEF"/>
<path d="M20.7768 36.584C20.9027 37.7353 20.3721 38.7384 19.5916 38.8245C18.8111 38.9106 18.0764 38.0472 17.9504 36.896C17.8245 35.7448 18.3551 34.7417 19.1356 34.6555C19.9161 34.5694 20.6509 35.4328 20.7768 36.584Z" fill="#EAEBEF"/>
</g>
<path opacity="0.1" d="M26.8364 52.0253C26.0406 51.5634 26.422 50.7893 28.3549 50.1458C32.4307 49.2471 31.743 51.0639 37.6081 50.3649C43.4731 49.6659 46.5651 47.237 48.1225 45.6393C49.3684 44.3611 50.5201 42.6314 50.4649 43.2417C50.1998 44.5398 48.0592 47.9617 41.6175 51.2637C33.5654 55.3912 28.0566 52.7335 26.8364 52.0253Z" fill="black"/>
<path d="M52.7363 21.7589C53.4899 21.2573 53.7003 20.2369 53.153 19.516C49.6564 14.9106 44.6462 11.6704 38.9868 10.3935C32.7949 8.9965 26.3051 10.0578 20.874 13.3555C15.4429 16.6533 11.4909 21.9322 9.84419 28.0888C8.34011 33.7121 8.8656 39.6701 11.2954 44.9182C11.6778 45.744 12.6855 46.0339 13.4824 45.5944C14.275 45.1572 14.5585 44.1636 14.1862 43.3386C12.1548 38.8373 11.7297 33.7499 13.015 28.9446C14.4419 23.6098 17.8663 19.0356 22.5724 16.1781C27.2785 13.3206 32.902 12.4009 38.2673 13.6115C43.0955 14.7008 47.3782 17.4392 50.401 21.332C50.9594 22.0512 51.9784 22.2635 52.7363 21.7589Z" fill="white"/>
<path d="M19.5684 52.7535C19.015 53.4736 19.1436 54.5113 19.8945 55.0173C23.4164 57.3907 27.4982 58.8144 31.7456 59.1363C36.5383 59.4997 41.3319 58.4445 45.5341 56.1011C49.7363 53.7577 53.1629 50.2289 55.3905 45.9507C57.3647 42.1592 58.3205 37.9264 58.1778 33.6686C58.1473 32.7607 57.3387 32.1022 56.4377 32.1932C55.5346 32.2844 54.8818 33.0941 54.9027 34.0044C54.986 37.6179 54.1571 41.2035 52.4812 44.4221C50.5509 48.1292 47.5817 51.1869 43.9405 53.2175C40.2993 55.248 36.1456 56.1624 31.9927 55.8476C28.3869 55.5742 24.919 54.3846 21.91 52.4026C21.1521 51.9033 20.123 52.0317 19.5684 52.7535Z" fill="white"/>
<path d="M71.7118 51.872C71.1504 51.872 70.8697 51.7216 70.8697 51.4208V42.5384C70.8697 42.3411 70.9118 42.2001 70.996 42.1155C71.0896 42.0215 71.2346 41.9745 71.4311 41.9745H76.0488C76.1985 41.9745 76.3061 42.0309 76.3716 42.1437C76.4371 42.2565 76.4698 42.4351 76.4698 42.6794V43.1165C76.4698 43.3609 76.4371 43.5395 76.3716 43.6523C76.3061 43.7651 76.1985 43.8215 76.0488 43.8215H73.0312V46.3029H75.9505C76.1002 46.3029 76.2078 46.3593 76.2733 46.4721C76.3388 46.5849 76.3716 46.7635 76.3716 47.0078V47.4449C76.3716 47.6893 76.3388 47.8679 76.2733 47.9807C76.2078 48.0935 76.1002 48.1499 75.9505 48.1499H73.0312V51.4208C73.0312 51.7216 72.7505 51.872 72.189 51.872H71.7118Z" fill="#87AB49"/>
<path d="M80.5672 51.872C80.0058 51.872 79.7251 51.7216 79.7251 51.4208V42.5384C79.7251 42.3411 79.7672 42.2001 79.8514 42.1155C79.9449 42.0215 80.09 41.9745 80.2865 41.9745H83.0234C85.3532 41.9745 86.5182 42.858 86.5182 44.6251C86.5182 45.1515 86.3685 45.612 86.0691 46.0068C85.779 46.3922 85.3813 46.6789 84.876 46.8668V46.9232C85.0538 46.989 85.2363 47.1488 85.4234 47.4026C85.6106 47.647 85.765 47.9196 85.8866 48.2203L87.1217 51.3221C87.1685 51.4443 87.1919 51.5336 87.1919 51.59C87.1919 51.6746 87.1217 51.7451 86.9814 51.8015C86.841 51.8485 86.6305 51.872 86.3498 51.872H85.7743C85.3158 51.872 85.0445 51.7733 84.9603 51.5759L83.8515 48.8266C83.6924 48.5164 83.5193 48.3002 83.3322 48.1781C83.1544 48.0465 82.8549 47.9807 82.4339 47.9807H81.8865V51.4208C81.8865 51.7216 81.6058 51.872 81.0444 51.872H80.5672ZM83.2199 46.1055C83.5099 46.1055 83.7626 45.988 83.9778 45.753C84.193 45.518 84.3006 45.2314 84.3006 44.893C84.3006 44.564 84.193 44.3055 83.9778 44.1175C83.7719 43.9202 83.4865 43.8215 83.1216 43.8215H81.8865V46.1055H83.2199Z" fill="#87AB49"/>
<path d="M90.8601 51.8438C90.6636 51.8438 90.5185 51.8015 90.425 51.7169C90.3407 51.6229 90.2986 51.4772 90.2986 51.2798V42.5384C90.2986 42.3411 90.3407 42.2001 90.425 42.1155C90.5185 42.0215 90.6636 41.9745 90.8601 41.9745H95.7865C95.9362 41.9745 96.0438 42.0309 96.1093 42.1437C96.1748 42.2565 96.2075 42.4351 96.2075 42.6794V43.1165C96.2075 43.3609 96.1748 43.5395 96.1093 43.6523C96.0438 43.7651 95.9362 43.8215 95.7865 43.8215H92.4601V45.8658H95.4075C95.5572 45.8658 95.6648 45.9222 95.7303 46.035C95.7958 46.1478 95.8286 46.3264 95.8286 46.5708V47.0078C95.8286 47.2522 95.7958 47.4308 95.7303 47.5436C95.6648 47.6564 95.5572 47.7128 95.4075 47.7128H92.4601V49.9968H95.8005C95.9502 49.9968 96.0578 50.0532 96.1233 50.166C96.1888 50.2788 96.2216 50.4574 96.2216 50.7018V51.1388C96.2216 51.3832 96.1888 51.5618 96.1233 51.6746C96.0578 51.7874 95.9502 51.8438 95.8005 51.8438H90.8601Z" fill="#87AB49"/>
<path d="M100.417 51.8438C100.22 51.8438 100.075 51.8015 99.9816 51.7169C99.8974 51.6229 99.8553 51.4772 99.8553 51.2798V42.5384C99.8553 42.3411 99.8974 42.2001 99.9816 42.1155C100.075 42.0215 100.22 41.9745 100.417 41.9745H105.343C105.493 41.9745 105.6 42.0309 105.666 42.1437C105.731 42.2565 105.764 42.4351 105.764 42.6794V43.1165C105.764 43.3609 105.731 43.5395 105.666 43.6523C105.6 43.7651 105.493 43.8215 105.343 43.8215H102.017V45.8658H104.964C105.114 45.8658 105.222 45.9222 105.287 46.035C105.352 46.1478 105.385 46.3264 105.385 46.5708V47.0078C105.385 47.2522 105.352 47.4308 105.287 47.5436C105.222 47.6564 105.114 47.7128 104.964 47.7128H102.017V49.9968H105.357C105.507 49.9968 105.614 50.0532 105.68 50.166C105.745 50.2788 105.778 50.4574 105.778 50.7018V51.1388C105.778 51.3832 105.745 51.5618 105.68 51.6746C105.614 51.7874 105.507 51.8438 105.357 51.8438H100.417Z" fill="#87AB49"/>
<path d="M117.57 51.872C117.111 51.872 116.849 51.7733 116.784 51.5759L113.752 42.5102C113.715 42.3787 113.696 42.2941 113.696 42.2565C113.696 42.0497 113.981 41.9463 114.552 41.9463H115.043C115.511 41.9463 115.787 42.0826 115.872 42.3552L117.612 47.9525C117.79 48.5258 117.893 48.9535 117.921 49.2355H117.977C118.005 48.9535 118.108 48.5258 118.286 47.9525L120.082 42.3552C120.176 42.0826 120.452 41.9463 120.91 41.9463H121.317C121.879 41.9463 122.159 42.0497 122.159 42.2565C122.159 42.3223 122.145 42.4069 122.117 42.5102L119.086 51.5759C119.02 51.7733 118.758 51.872 118.3 51.872H117.57Z" fill="#87AB49"/>
<path d="M125.966 51.872C125.404 51.872 125.123 51.7216 125.123 51.4208V42.5384C125.123 42.3411 125.166 42.2001 125.25 42.1155C125.343 42.0215 125.488 41.9745 125.685 41.9745H128.632C129.512 41.9745 130.289 42.1907 130.962 42.623C131.636 43.046 131.973 43.8591 131.973 45.0622C131.973 45.8893 131.776 46.5332 131.383 46.9937C130.99 47.4449 130.551 47.7504 130.064 47.9102C129.577 48.07 129.147 48.1499 128.773 48.1499H127.285V51.4208C127.285 51.7216 127.004 51.872 126.443 51.872H125.966ZM128.534 46.2888C128.871 46.2888 129.156 46.1995 129.39 46.0209C129.634 45.8423 129.755 45.5227 129.755 45.0622C129.755 44.6016 129.634 44.282 129.39 44.1034C129.156 43.9155 128.871 43.8215 128.534 43.8215H127.285V46.2888H128.534Z" fill="#87AB49"/>
<path d="M135.865 51.872C135.304 51.872 135.023 51.7216 135.023 51.4208V42.3975C135.023 42.0967 135.304 41.9463 135.865 41.9463H136.468C136.693 41.9463 136.88 41.9745 137.03 42.0309C137.18 42.0779 137.301 42.1766 137.395 42.327L140.553 47.2193C140.74 47.4919 140.908 47.7692 141.058 48.0512L141.114 48.0371C141.095 47.8209 141.086 47.5013 141.086 47.0783V42.3975C141.086 42.0967 141.367 41.9463 141.928 41.9463H142.335C142.897 41.9463 143.177 42.0967 143.177 42.3975V51.4208C143.177 51.7216 142.897 51.872 142.335 51.872H141.802C141.577 51.872 141.39 51.8485 141.24 51.8015C141.091 51.7451 140.969 51.6417 140.876 51.4913L137.647 46.5285C137.46 46.2559 137.292 45.9786 137.142 45.6966L137.086 45.7107C137.105 45.9269 137.114 46.2465 137.114 46.6695V51.4208C137.114 51.7216 136.833 51.872 136.272 51.872H135.865Z" fill="#87AB49"/>
<path d="M72.456 37.0032C71.3985 37.0032 70.8697 36.7199 70.8697 36.1533V19.4222C70.8697 19.0504 70.949 18.7848 71.1077 18.6255C71.2839 18.4484 71.5571 18.3599 71.9272 18.3599H77.4791C79.1359 18.3599 80.5987 18.7671 81.8677 19.5815C83.1367 20.3782 83.7712 21.9097 83.7712 24.1759C83.7712 25.734 83.4011 26.9468 82.6609 27.8143C81.9206 28.6641 81.0922 29.2396 80.1757 29.5405C79.2592 29.8415 78.4485 29.992 77.7435 29.992H74.9411V36.1533C74.9411 36.7199 74.4123 37.0032 73.3548 37.0032H72.456ZM77.294 26.4864C77.9285 26.4864 78.4661 26.3182 78.9067 25.9818C79.365 25.6455 79.5941 25.0435 79.5941 24.1759C79.5941 23.3084 79.365 22.7064 78.9067 22.37C78.4661 22.0159 77.9285 21.8389 77.294 21.8389H74.9411V26.4864H77.294Z" fill="white"/>
<path d="M89.6486 37.1625C87.0754 37.1625 85.7887 35.7284 85.7887 32.8602V17.7756C85.7887 17.2091 86.3175 16.9258 87.375 16.9258H88.1152C89.1727 16.9258 89.7015 17.2091 89.7015 17.7756V32.9133C89.7015 33.3205 89.772 33.6127 89.913 33.7897C90.0716 33.9668 90.3184 34.0553 90.6532 34.0553C90.7414 34.0553 90.8559 34.0376 90.9969 34.0022C91.1556 33.9668 91.2789 33.9491 91.3671 33.9491C91.5257 33.9491 91.6667 34.0818 91.7901 34.3474C91.9134 34.613 92.0104 34.9051 92.0809 35.2238C92.1514 35.5425 92.1866 35.755 92.1866 35.8612C92.1866 36.7287 91.3406 37.1625 89.6486 37.1625Z" fill="white"/>
<path d="M96.9949 37.1625C95.6378 37.1625 94.642 36.8084 94.0075 36.1002C93.3906 35.392 93.0822 34.4537 93.0822 33.2851C93.0822 31.8687 93.5933 30.6914 94.6156 29.753C95.6554 28.8146 97.6735 28.3455 100.67 28.3455V27.4691C100.67 26.9556 100.502 26.575 100.167 26.3271C99.8502 26.0792 99.3303 25.9553 98.6076 25.9553C98.0084 25.9553 97.4796 26.0173 97.0214 26.1412C96.5808 26.2651 96.1842 26.4068 95.8317 26.5661C95.4792 26.7255 95.2765 26.8051 95.2236 26.8051C95.0474 26.8051 94.8535 26.6723 94.642 26.4068C94.4305 26.1412 94.2454 25.8402 94.0868 25.5038C93.9282 25.1497 93.8489 24.8753 93.8489 24.6805C93.8489 24.3796 94.0692 24.0874 94.5098 23.8041C94.9504 23.5209 95.5585 23.2907 96.334 23.1136C97.1095 22.9366 97.9643 22.8481 98.8984 22.8481C100.89 22.8481 102.335 23.2464 103.234 24.0432C104.133 24.8222 104.583 25.9022 104.583 27.2832V32.2759C104.583 33.0904 104.6 33.71 104.635 34.135C104.688 34.5599 104.75 35.0291 104.82 35.5425C104.873 35.7727 104.9 35.9674 104.9 36.1268C104.9 36.41 104.538 36.6225 103.816 36.7641C103.111 36.9058 102.485 36.9766 101.939 36.9766C101.622 36.9766 101.401 36.8527 101.278 36.6048C101.154 36.3392 101.058 36.0559 100.987 35.755C100.934 35.454 100.899 35.2504 100.881 35.1441C100.776 35.3389 100.564 35.5956 100.247 35.9143C99.9295 36.2153 99.4889 36.4986 98.9249 36.7641C98.3609 37.0297 97.7176 37.1625 96.9949 37.1625ZM98.2904 34.0553C98.7839 34.0553 99.2509 33.8959 99.6916 33.5773C100.132 33.2586 100.458 32.8602 100.67 32.3822V30.9215C98.2023 30.9215 96.9685 31.5766 96.9685 32.8868C96.9685 33.2409 97.0831 33.5241 97.3122 33.7366C97.5413 33.9491 97.8674 34.0553 98.2904 34.0553Z" fill="white"/>
<path d="M109.604 37.0032C108.546 37.0032 108.017 36.7199 108.017 36.1533V27.7346C108.017 26.9556 107.991 26.3625 107.938 25.9553C107.903 25.5304 107.85 25.0612 107.779 24.5477C107.727 24.2999 107.7 24.114 107.7 23.99C107.7 23.7068 108.053 23.4943 108.758 23.3527C109.48 23.211 110.115 23.1402 110.661 23.1402C110.978 23.1402 111.199 23.2641 111.322 23.512C111.445 23.7422 111.534 23.9989 111.586 24.2822C111.657 24.5655 111.701 24.7602 111.719 24.8664C112.142 24.2999 112.706 23.8218 113.411 23.4323C114.116 23.0428 114.865 22.8481 115.658 22.8481C116.98 22.8481 117.958 23.2022 118.592 23.9104C119.227 24.6009 119.544 25.6809 119.544 27.1504V36.1533C119.544 36.7199 119.015 37.0032 117.958 37.0032H117.218C116.16 37.0032 115.631 36.7199 115.631 36.1533V27.7346C115.631 27.1858 115.508 26.7786 115.261 26.513C115.014 26.2297 114.609 26.0881 114.045 26.0881C113.569 26.0881 113.146 26.2474 112.776 26.5661C112.424 26.8671 112.142 27.2212 111.93 27.6284V36.1533C111.93 36.7199 111.401 37.0032 110.344 37.0032H109.604Z" fill="white"/>
<path d="M129.105 37.1625C126.778 37.1625 125.042 36.5428 123.897 35.3035C122.769 34.0464 122.205 32.3114 122.205 30.0982C122.205 27.6018 122.769 25.7694 123.897 24.6009C125.042 23.4323 126.62 22.8481 128.629 22.8481C130.585 22.8481 132.022 23.4855 132.938 24.7602C133.873 26.035 134.34 27.6815 134.34 29.6999C134.34 29.9123 134.155 30.231 133.784 30.6559C133.432 31.0632 133.168 31.2668 132.991 31.2668H126.25C126.338 32.2759 126.637 32.993 127.149 33.4179C127.66 33.8428 128.374 34.0553 129.29 34.0553C129.784 34.0553 130.233 34.0022 130.638 33.8959C131.044 33.772 131.467 33.6215 131.907 33.4445C132.189 33.3028 132.383 33.232 132.489 33.232C132.665 33.232 132.859 33.3648 133.071 33.6304C133.3 33.8782 133.485 34.1704 133.626 34.5068C133.784 34.8255 133.864 35.0733 133.864 35.2504C133.864 35.6576 133.591 36.0117 133.044 36.3127C132.498 36.5959 131.846 36.8084 131.088 36.95C130.33 37.0917 129.669 37.1625 129.105 37.1625ZM130.533 28.6376C130.533 27.8232 130.374 27.1769 130.057 26.6989C129.739 26.2032 129.264 25.9553 128.629 25.9553C127.325 25.9553 126.532 26.8494 126.25 28.6376H130.533Z" fill="white"/>
<path d="M141.241 37.1625C138.668 37.1625 137.382 35.7284 137.382 32.8602V26.1677H136.959C136.677 26.1677 136.474 26.0615 136.351 25.8491C136.227 25.6366 136.165 25.3002 136.165 24.8399V24.3884C136.165 23.9281 136.227 23.5917 136.351 23.3792C136.474 23.1668 136.677 23.0605 136.959 23.0605H137.382L137.725 20.5376C137.813 19.971 138.289 19.6877 139.153 19.6877H139.972C140.854 19.6877 141.294 19.971 141.294 20.5376V23.0605H142.59C142.872 23.0605 143.074 23.1668 143.198 23.3792C143.321 23.5917 143.383 23.9281 143.383 24.3884V24.8399C143.383 25.3002 143.321 25.6366 143.198 25.8491C143.074 26.0615 142.872 26.1677 142.59 26.1677H141.294V32.9133C141.294 33.3205 141.365 33.6127 141.506 33.7897C141.664 33.9668 141.911 34.0553 142.246 34.0553C142.334 34.0553 142.449 34.0376 142.59 34.0022C142.748 33.9668 142.872 33.9491 142.96 33.9491C143.119 33.9491 143.26 34.0818 143.383 34.3474C143.506 34.613 143.603 34.9051 143.674 35.2238C143.744 35.5425 143.779 35.755 143.779 35.8612C143.779 36.7287 142.933 37.1625 141.241 37.1625Z" fill="white"/>
<defs>
<linearGradient id="paint0_linear_13515_4667" x1="9.30927" y1="-4.84505" x2="44.1871" y2="54.3083" gradientUnits="userSpaceOnUse">
<stop offset="0.394669" stop-color="#FF3A3A"/>
<stop offset="0.72037" stop-color="#D64D12"/>
<stop offset="0.749987" stop-color="#70AF09"/>
</linearGradient>
</defs>
</svg>
