<svg width="107" height="50" viewBox="0 0 107 50" fill="none" xmlns="http://www.w3.org/2000/svg">
<ellipse cx="24.887" cy="25.0001" rx="16.9637" ry="17.0406" fill="url(#paint0_linear_279_2742)"/>
<path d="M39.4946 11.5148C42.5733 11.0625 44.7574 11.4402 45.5229 12.7795C46.9567 15.2881 43.0098 20.4617 36.1413 25.7238C35.9338 25.8828 35.8266 26.1382 35.8267 26.3996C35.8267 28.7877 33.8993 30.7238 31.522 30.7238C31.4018 30.7238 31.2827 30.7188 31.165 30.7091C30.1058 30.6214 28.9792 30.579 28.061 31.1144C16.487 37.8633 5.53945 40.5966 3.60889 37.2199C2.81701 35.8344 3.6675 33.637 5.74365 31.0597C6.03565 30.6973 6.59674 30.7523 6.82764 31.1564C6.97457 31.4137 6.93557 31.7358 6.73975 31.9582C5.58688 33.2653 5.08927 34.2831 5.42041 34.8625C6.48417 36.722 15.6856 33.3665 25.9722 27.3683C26.3277 27.161 26.6794 26.9523 27.0278 26.744C27.1481 26.6721 27.2173 26.5396 27.2173 26.3996C27.2175 24.0117 29.1449 22.0765 31.522 22.0763C32.7946 22.0763 34.1735 22.114 35.1987 21.3599C40.3294 17.586 43.3777 14.3727 42.6733 13.1398C42.3577 12.5877 41.3254 12.4963 39.7603 12.7961C39.4756 12.8506 39.1843 12.7235 39.0405 12.4718C38.8161 12.0784 39.0465 11.5808 39.4946 11.5148Z" fill="#D7DEED"/>
<ellipse cx="31.5221" cy="26.3998" rx="2.15227" ry="2.16203" fill="#87AB49"/>
<g opacity="0.32">
<path d="M16.1941 19.1721C15.1501 21.7616 15.4794 24.4924 14.1989 23.9715C12.9184 23.4505 12.7267 20.929 13.7707 18.3394C14.8147 15.7499 16.6991 14.0729 17.9796 14.5939C19.2601 15.1148 17.2381 16.5825 16.1941 19.1721Z" fill="#EAEBEF"/>
<path d="M15.3902 26.5441C15.4835 27.3968 15.0905 28.1398 14.5123 28.2037C13.9342 28.2675 13.3899 27.6279 13.2966 26.7751C13.2034 25.9224 13.5964 25.1793 14.1746 25.1155C14.7527 25.0517 15.297 25.6913 15.3902 26.5441Z" fill="#EAEBEF"/>
</g>
<path opacity="0.1" d="M19.8788 37.9819C19.2893 37.6398 19.5718 37.0664 21.0036 36.5897C24.0227 35.924 23.5133 37.2698 27.8578 36.752C32.2023 36.2342 34.4927 34.435 35.6463 33.2515C36.5692 32.3047 37.4223 31.0234 37.3814 31.4755C37.185 32.4371 35.5994 34.9718 30.8278 37.4177C24.8633 40.4751 20.7827 38.5065 19.8788 37.9819Z" fill="black"/>
<path d="M39.0644 15.5624C39.6226 15.1908 39.7785 14.435 39.373 13.901C36.783 10.4895 33.0718 8.08941 28.8796 7.14358C24.293 6.10875 19.4857 6.89489 15.4627 9.33766C11.4396 11.7804 8.51226 15.6907 7.29248 20.2512C6.17834 24.4166 6.56759 28.83 8.36747 32.7174C8.6507 33.3291 9.39717 33.5438 9.98744 33.2183C10.5745 32.8944 10.7846 32.1584 10.5088 31.5473C9.00401 28.2131 8.68914 24.4446 9.64121 20.8851C10.6982 16.9334 13.2348 13.5451 16.7208 11.4284C20.2068 9.31176 24.3723 8.63057 28.3466 9.52725C31.923 10.3342 35.0955 12.3626 37.3345 15.2461C37.7482 15.7789 38.503 15.9361 39.0644 15.5624Z" fill="#D7DEED"/>
<path d="M14.4961 38.5213C14.0861 39.0547 14.1814 39.8234 14.7377 40.1982C17.3465 41.9563 20.37 43.0109 23.5162 43.2494C27.0664 43.5185 30.6172 42.7369 33.7299 41.001C36.8426 39.2652 39.3809 36.6513 41.031 33.4822C42.4933 30.6737 43.2013 27.5383 43.0956 24.3844C43.0731 23.7118 42.4741 23.2241 41.8067 23.2915C41.1377 23.3591 40.6541 23.9588 40.6697 24.6332C40.7313 27.3098 40.1173 29.9658 38.8759 32.3499C37.4461 35.0959 35.2467 37.3609 32.5495 38.865C29.8523 40.3692 26.7755 41.0465 23.6993 40.8132C21.0283 40.6108 18.4595 39.7296 16.2306 38.2614C15.6692 37.8916 14.9069 37.9867 14.4961 38.5213Z" fill="#D7DEED"/>
<path d="M53.1179 37.868C52.7021 37.868 52.4941 37.7566 52.4941 37.5338V30.9543C52.4941 30.808 52.5253 30.7036 52.5877 30.6409C52.657 30.5713 52.7645 30.5365 52.91 30.5365H56.3305C56.4414 30.5365 56.5211 30.5783 56.5696 30.6618C56.6181 30.7454 56.6424 30.8777 56.6424 31.0587V31.3825C56.6424 31.5635 56.6181 31.6958 56.5696 31.7793C56.5211 31.8629 56.4414 31.9046 56.3305 31.9046H54.0952V33.7427H56.2577C56.3686 33.7427 56.4483 33.7845 56.4968 33.8681C56.5453 33.9516 56.5696 34.0839 56.5696 34.2649V34.5887C56.5696 34.7697 56.5453 34.902 56.4968 34.9855C56.4483 35.0691 56.3686 35.1109 56.2577 35.1109H54.0952V37.5338C54.0952 37.7566 53.8873 37.868 53.4714 37.868H53.1179Z" fill="#87AB49"/>
<path d="M59.6774 37.868C59.2616 37.868 59.0537 37.7566 59.0537 37.5338V30.9543C59.0537 30.808 59.0848 30.7036 59.1472 30.6409C59.2165 30.5713 59.324 30.5365 59.4695 30.5365H61.4968C63.2227 30.5365 64.0856 31.191 64.0856 32.4999C64.0856 32.8898 63.9747 33.231 63.7529 33.5234C63.538 33.8089 63.2435 34.0212 62.8692 34.1605V34.2023C63.0009 34.251 63.136 34.3694 63.2747 34.5573C63.4133 34.7384 63.5276 34.9403 63.6177 35.1631L64.5326 37.4607C64.5673 37.5512 64.5846 37.6173 64.5846 37.6591C64.5846 37.7218 64.5326 37.774 64.4287 37.8158C64.3247 37.8506 64.1688 37.868 63.9608 37.868H63.5346C63.195 37.868 62.994 37.7949 62.9316 37.6487L62.1102 35.6122C61.9924 35.3824 61.8642 35.2223 61.7256 35.1317C61.5939 35.0343 61.3721 34.9855 61.0602 34.9855H60.6547V37.5338C60.6547 37.7566 60.4468 37.868 60.0309 37.868H59.6774ZM61.6424 33.5965C61.8573 33.5965 62.0444 33.5095 62.2038 33.3354C62.3632 33.1614 62.4429 32.949 62.4429 32.6984C62.4429 32.4547 62.3632 32.2632 62.2038 32.124C62.0513 31.9777 61.8399 31.9046 61.5696 31.9046H60.6547V33.5965H61.6424Z" fill="#87AB49"/>
<path d="M67.3018 37.8471C67.1562 37.8471 67.0488 37.8158 66.9795 37.7531C66.9171 37.6835 66.8859 37.5756 66.8859 37.4294V30.9543C66.8859 30.808 66.9171 30.7036 66.9795 30.6409C67.0488 30.5713 67.1562 30.5365 67.3018 30.5365H70.951C71.0619 30.5365 71.1416 30.5783 71.1901 30.6618C71.2386 30.7454 71.2629 30.8777 71.2629 31.0587V31.3825C71.2629 31.5635 71.2386 31.6958 71.1901 31.7793C71.1416 31.8629 71.0619 31.9046 70.951 31.9046H68.487V33.419H70.6703C70.7812 33.419 70.8609 33.4608 70.9094 33.5443C70.9579 33.6279 70.9822 33.7601 70.9822 33.9412V34.2649C70.9822 34.4459 70.9579 34.5782 70.9094 34.6618C70.8609 34.7453 70.7812 34.7871 70.6703 34.7871H68.487V36.479H70.9614C71.0723 36.479 71.152 36.5208 71.2005 36.6043C71.249 36.6879 71.2733 36.8201 71.2733 37.0012V37.3249C71.2733 37.5059 71.249 37.6382 71.2005 37.7218C71.152 37.8053 71.0723 37.8471 70.9614 37.8471H67.3018Z" fill="#87AB49"/>
<path d="M74.3808 37.8471C74.2353 37.8471 74.1278 37.8158 74.0585 37.7531C73.9961 37.6835 73.9649 37.5756 73.9649 37.4294V30.9543C73.9649 30.808 73.9961 30.7036 74.0585 30.6409C74.1278 30.5713 74.2353 30.5365 74.3808 30.5365H78.03C78.1409 30.5365 78.2206 30.5783 78.2691 30.6618C78.3176 30.7454 78.3419 30.8777 78.3419 31.0587V31.3825C78.3419 31.5635 78.3176 31.6958 78.2691 31.7793C78.2206 31.8629 78.1409 31.9046 78.03 31.9046H75.566V33.419H77.7493C77.8602 33.419 77.9399 33.4608 77.9884 33.5443C78.0369 33.6279 78.0612 33.7601 78.0612 33.9412V34.2649C78.0612 34.4459 78.0369 34.5782 77.9884 34.6618C77.9399 34.7453 77.8602 34.7871 77.7493 34.7871H75.566V36.479H78.0404C78.1513 36.479 78.231 36.5208 78.2795 36.6043C78.328 36.6879 78.3523 36.8201 78.3523 37.0012V37.3249C78.3523 37.5059 78.328 37.6382 78.2795 37.7218C78.231 37.8053 78.1513 37.8471 78.0404 37.8471H74.3808Z" fill="#87AB49"/>
<path d="M87.0868 37.868C86.7472 37.868 86.5531 37.7949 86.5046 37.6487L84.2589 30.9334C84.2312 30.8359 84.2174 30.7732 84.2174 30.7454C84.2174 30.5922 84.4287 30.5156 84.8515 30.5156H85.2154C85.562 30.5156 85.7664 30.6166 85.8288 30.8185L87.118 34.9646C87.2497 35.3894 87.3259 35.7061 87.3467 35.915H87.3883C87.4091 35.7061 87.4853 35.3894 87.617 34.9646L88.9478 30.8185C89.0171 30.6166 89.2216 30.5156 89.5612 30.5156H89.8627C90.2786 30.5156 90.4865 30.5922 90.4865 30.7454C90.4865 30.7941 90.4761 30.8568 90.4553 30.9334L88.2096 37.6487C88.1611 37.7949 87.967 37.868 87.6274 37.868H87.0868Z" fill="#87AB49"/>
<path d="M93.3059 37.868C92.89 37.868 92.6821 37.7566 92.6821 37.5338V30.9543C92.6821 30.808 92.7133 30.7036 92.7757 30.6409C92.845 30.5713 92.9524 30.5365 93.098 30.5365H95.2813C95.9328 30.5365 96.5081 30.6966 97.0071 31.0169C97.5061 31.3302 97.7556 31.9325 97.7556 32.8237C97.7556 33.4364 97.6101 33.9133 97.319 34.2545C97.0279 34.5887 96.7021 34.815 96.3417 34.9333C95.9813 35.0517 95.6625 35.1109 95.3852 35.1109H94.2832V37.5338C94.2832 37.7566 94.0753 37.868 93.6594 37.868H93.3059ZM95.2085 33.7323C95.458 33.7323 95.6694 33.6661 95.8427 33.5339C96.0229 33.4016 96.113 33.1648 96.113 32.8237C96.113 32.4825 96.0229 32.2458 95.8427 32.1135C95.6694 31.9743 95.458 31.9046 95.2085 31.9046H94.2832V33.7323H95.2085Z" fill="#87AB49"/>
<path d="M100.639 37.868C100.223 37.868 100.015 37.7566 100.015 37.5338V30.8498C100.015 30.627 100.223 30.5156 100.639 30.5156H101.086C101.252 30.5156 101.391 30.5365 101.502 30.5783C101.613 30.6131 101.703 30.6862 101.772 30.7976L104.111 34.4216C104.25 34.6235 104.375 34.8289 104.485 35.0378L104.527 35.0273C104.513 34.8672 104.506 34.6304 104.506 34.3171V30.8498C104.506 30.627 104.714 30.5156 105.13 30.5156H105.432C105.847 30.5156 106.055 30.627 106.055 30.8498V37.5338C106.055 37.7566 105.847 37.868 105.432 37.868H105.036C104.87 37.868 104.732 37.8506 104.621 37.8158C104.51 37.774 104.42 37.6974 104.35 37.586L101.959 33.9098C101.82 33.7079 101.696 33.5025 101.585 33.2937L101.543 33.3041C101.557 33.4642 101.564 33.701 101.564 34.0143V37.5338C101.564 37.7566 101.356 37.868 100.94 37.868H100.639Z" fill="#87AB49"/>
<path d="M53.6691 26.8546C52.8858 26.8546 52.4941 26.6447 52.4941 26.225V13.8316C52.4941 13.5562 52.5529 13.3595 52.6704 13.2414C52.8009 13.1103 53.0033 13.0447 53.2775 13.0447H57.39C58.6172 13.0447 59.7008 13.3464 60.6408 13.9496C61.5808 14.5398 62.0508 15.6742 62.0508 17.3529C62.0508 18.507 61.7766 19.4054 61.2283 20.048C60.68 20.6775 60.0664 21.1037 59.3875 21.3267C58.7086 21.5496 58.108 21.6611 57.5858 21.6611H55.51V26.225C55.51 26.6447 55.1183 26.8546 54.335 26.8546H53.6691ZM57.2529 19.0644C57.7229 19.0644 58.1211 18.9398 58.4475 18.6906C58.7869 18.4414 58.9566 17.9955 58.9566 17.3529C58.9566 16.7103 58.7869 16.2644 58.4475 16.0152C58.1211 15.7529 57.7229 15.6218 57.2529 15.6218H55.51V19.0644H57.2529Z" fill="#5A78A6"/>
<path d="M66.4044 26.9726C64.4983 26.9726 63.5453 25.9103 63.5453 23.7857V12.6119C63.5453 12.1923 63.9369 11.9824 64.7203 11.9824H65.2686C66.0519 11.9824 66.4436 12.1923 66.4436 12.6119V23.825C66.4436 24.1267 66.4958 24.3431 66.6003 24.4742C66.7178 24.6054 66.9005 24.6709 67.1486 24.6709C67.2139 24.6709 67.2987 24.6578 67.4032 24.6316C67.5207 24.6054 67.6121 24.5923 67.6774 24.5923C67.7949 24.5923 67.8993 24.6906 67.9907 24.8873C68.0821 25.0841 68.1539 25.3005 68.2061 25.5365C68.2583 25.7726 68.2844 25.93 68.2844 26.0087C68.2844 26.6513 67.6578 26.9726 66.4044 26.9726Z" fill="#5A78A6"/>
<path d="M71.8462 26.9726C70.8409 26.9726 70.1032 26.7103 69.6332 26.1857C69.1763 25.6611 68.9478 24.966 68.9478 24.1005C68.9478 23.0513 69.3264 22.1791 70.0837 21.4841C70.8539 20.789 72.3488 20.4414 74.5682 20.4414V19.7923C74.5682 19.4119 74.4442 19.13 74.1962 18.9464C73.9612 18.7627 73.576 18.6709 73.0407 18.6709C72.5969 18.6709 72.2052 18.7168 71.8657 18.8087C71.5394 18.9005 71.2456 19.0054 70.9845 19.1234C70.7234 19.2414 70.5732 19.3005 70.5341 19.3005C70.4035 19.3005 70.2599 19.2021 70.1032 19.0054C69.9466 18.8087 69.8095 18.5857 69.692 18.3365C69.5745 18.0742 69.5157 17.8709 69.5157 17.7267C69.5157 17.5037 69.6789 17.2873 70.0053 17.0775C70.3317 16.8677 70.7821 16.6972 71.3566 16.566C71.931 16.4349 72.5642 16.3693 73.2562 16.3693C74.7314 16.3693 75.802 16.6644 76.4678 17.2546C77.1337 17.8316 77.4666 18.6316 77.4666 19.6546V23.3529C77.4666 23.9562 77.4796 24.4152 77.5058 24.73C77.5449 25.0447 77.5906 25.3923 77.6428 25.7726C77.682 25.9431 77.7016 26.0873 77.7016 26.2054C77.7016 26.4152 77.4339 26.5726 76.8987 26.6775C76.3764 26.7824 75.913 26.8349 75.5082 26.8349C75.2732 26.8349 75.1101 26.7431 75.0187 26.5595C74.9273 26.3628 74.8555 26.1529 74.8032 25.93C74.7641 25.707 74.738 25.5562 74.7249 25.4775C74.6466 25.6218 74.4899 25.8119 74.2549 26.048C74.0199 26.2709 73.6935 26.4808 73.2757 26.6775C72.858 26.8742 72.3814 26.9726 71.8462 26.9726ZM72.8057 24.6709C73.1713 24.6709 73.5173 24.5529 73.8437 24.3168C74.1701 24.0808 74.4116 23.7857 74.5682 23.4316V22.3496C72.7405 22.3496 71.8266 22.8349 71.8266 23.8054C71.8266 24.0677 71.9114 24.2775 72.0812 24.4349C72.2509 24.5923 72.4924 24.6709 72.8057 24.6709Z" fill="#5A78A6"/>
<path d="M81.1859 26.8546C80.4026 26.8546 80.0109 26.6447 80.0109 26.225V19.989C80.0109 19.4119 79.9913 18.9726 79.9521 18.6709C79.926 18.3562 79.8869 18.0087 79.8346 17.6283C79.7955 17.4447 79.7759 17.307 79.7759 17.2152C79.7759 17.0054 80.037 16.848 80.5592 16.7431C81.0945 16.6382 81.5645 16.5857 81.9692 16.5857C82.2042 16.5857 82.3674 16.6775 82.4588 16.8611C82.5502 17.0316 82.6155 17.2218 82.6546 17.4316C82.7069 17.6414 82.7395 17.7857 82.7526 17.8644C83.0659 17.4447 83.4837 17.0906 84.0059 16.8021C84.5281 16.5136 85.083 16.3693 85.6705 16.3693C86.6496 16.3693 87.3742 16.6316 87.8442 17.1562C88.3142 17.6677 88.5492 18.4677 88.5492 19.5562V26.225C88.5492 26.6447 88.1576 26.8546 87.3742 26.8546H86.8259C86.0426 26.8546 85.6509 26.6447 85.6509 26.225V19.989C85.6509 19.5824 85.5595 19.2808 85.3767 19.0841C85.1939 18.8742 84.8937 18.7693 84.4759 18.7693C84.1234 18.7693 83.8101 18.8873 83.5359 19.1234C83.2748 19.3464 83.0659 19.6087 82.9092 19.9103V26.225C82.9092 26.6447 82.5176 26.8546 81.7342 26.8546H81.1859Z" fill="#5A78A6"/>
<path d="M95.6314 26.9726C93.908 26.9726 92.6221 26.5136 91.7734 25.5955C90.9379 24.6644 90.5201 23.3791 90.5201 21.7398C90.5201 19.8906 90.9379 18.5332 91.7734 17.6677C92.6221 16.8021 93.7905 16.3693 95.2789 16.3693C96.728 16.3693 97.7921 16.8414 98.4709 17.7857C99.1629 18.73 99.5089 19.9496 99.5089 21.4447C99.5089 21.6021 99.3718 21.8382 99.0976 22.1529C98.8365 22.4546 98.6407 22.6054 98.5101 22.6054H93.5164C93.5816 23.3529 93.8036 23.8841 94.1822 24.1988C94.5608 24.5136 95.0896 24.6709 95.7684 24.6709C96.134 24.6709 96.4669 24.6316 96.7672 24.5529C97.0675 24.4611 97.3808 24.3496 97.7072 24.2185C97.9161 24.1136 98.0597 24.0611 98.138 24.0611C98.2686 24.0611 98.4122 24.1595 98.5689 24.3562C98.7386 24.5398 98.8757 24.7562 98.9801 25.0054C99.0976 25.2414 99.1564 25.425 99.1564 25.5562C99.1564 25.8578 98.954 26.1201 98.5493 26.3431C98.1446 26.5529 97.6615 26.7103 97.1001 26.8152C96.5387 26.9201 96.0491 26.9726 95.6314 26.9726ZM96.6889 20.6578C96.6889 20.0546 96.5714 19.5759 96.3364 19.2218C96.1014 18.8546 95.7489 18.6709 95.2789 18.6709C94.3128 18.6709 93.7253 19.3332 93.5164 20.6578H96.6889Z" fill="#5A78A6"/>
<path d="M104.621 26.9726C102.715 26.9726 101.762 25.9103 101.762 23.7857V18.8283H101.449C101.24 18.8283 101.09 18.7496 100.998 18.5923C100.907 18.4349 100.861 18.1857 100.861 17.8447V17.5103C100.861 17.1693 100.907 16.9201 100.998 16.7627C101.09 16.6054 101.24 16.5267 101.449 16.5267H101.762L102.017 14.6578C102.082 14.2382 102.435 14.0283 103.074 14.0283H103.681C104.334 14.0283 104.661 14.2382 104.661 14.6578V16.5267H105.62C105.829 16.5267 105.979 16.6054 106.071 16.7627C106.162 16.9201 106.208 17.1693 106.208 17.5103V17.8447C106.208 18.1857 106.162 18.4349 106.071 18.5923C105.979 18.7496 105.829 18.8283 105.62 18.8283H104.661V23.825C104.661 24.1267 104.713 24.3431 104.817 24.4742C104.935 24.6054 105.117 24.6709 105.366 24.6709C105.431 24.6709 105.516 24.6578 105.62 24.6316C105.738 24.6054 105.829 24.5923 105.894 24.5923C106.012 24.5923 106.116 24.6906 106.208 24.8873C106.299 25.0841 106.371 25.3005 106.423 25.5365C106.475 25.7726 106.501 25.93 106.501 26.0087C106.501 26.6513 105.875 26.9726 104.621 26.9726Z" fill="#5A78A6"/>
<defs>
<linearGradient id="paint0_linear_279_2742" x1="6.89723" y1="-4.14363" x2="32.7327" y2="39.6737" gradientUnits="userSpaceOnUse">
<stop offset="0.394669" stop-color="#FF3A3A"/>
<stop offset="0.72037" stop-color="#D64D12"/>
<stop offset="0.749987" stop-color="#70AF09"/>
</linearGradient>
</defs>
</svg>
