<?xml version="1.0" encoding="UTF-8"?>
<svg xmlns="http://www.w3.org/2000/svg" width="32" height="32" viewBox="0 0 32 32" fill="none">
  <path d="M15.0884 15.3203L2.34546 28.671C2.48855 29.1781 2.74569 29.6458 3.09724 30.0384C3.44879 30.4309 3.88544 30.7378 4.3738 30.9357C4.86216 31.1337 5.38931 31.2173 5.91494 31.1802C6.44058 31.1432 6.95078 30.9865 7.40656 30.722L21.7448 22.5559L15.0884 15.3203Z" fill="#EA4335"></path>
  <path d="M27.978 13.0533L21.7774 9.50195L14.7982 15.6265L21.8059 22.5393L27.959 19.0259C28.5041 18.7405 28.9607 18.3113 29.2793 17.7849C29.5979 17.2585 29.7663 16.6549 29.7663 16.0396C29.7663 15.4243 29.5979 14.8207 29.2793 14.2943C28.9607 13.7679 28.5041 13.3387 27.959 13.0533H27.978Z" fill="#FBBC04"></path>
  <path d="M2.34482 3.3374C2.26779 3.62216 2.22946 3.916 2.23087 4.21099V27.7978C2.23164 28.0927 2.26993 28.3862 2.34482 28.6714L15.5246 15.6626L2.34482 3.3374Z" fill="#4285F4"></path>
  <path d="M15.1834 16.0048L21.7732 9.5004L7.45404 1.29629C6.91534 0.980792 6.30266 0.813696 5.67838 0.812019C4.92442 0.810524 4.19065 1.0556 3.58892 1.5099C2.98719 1.96419 2.55052 2.60278 2.34546 3.32833L15.1834 16.0048Z" fill="#34A853"></path>
</svg>
