<?xml version="1.0" encoding="UTF-8"?>
<svg xmlns="http://www.w3.org/2000/svg" width="200" height="32" viewBox="0 0 200 32" fill="none">
  <g clip-path="url(#clip0_13457_23134)">
    <path d="M24.0002 13.3334H22.3202C21.8213 11.4014 20.7906 9.64803 19.3451 8.27257C17.8995 6.89711 16.0971 5.9547 14.1427 5.55241C12.1884 5.15012 10.1603 5.30409 8.28906 5.99683C6.4178 6.68957 4.77837 7.89329 3.55706 9.47122C2.33574 11.0491 1.58151 12.938 1.38006 14.9232C1.17862 16.9083 1.53804 18.9102 2.41749 20.7013C3.29694 22.4924 4.66114 24.0009 6.3551 25.0555C8.04905 26.11 10.0048 26.6682 12.0002 26.6667H24.0002C25.7683 26.6667 27.464 25.9643 28.7142 24.7141C29.9645 23.4638 30.6669 21.7682 30.6669 20C30.6669 18.2319 29.9645 16.5362 28.7142 15.286C27.464 14.0358 25.7683 13.3334 24.0002 13.3334Z" fill="#C2CCDF" stroke="#C2CCDF" stroke-width="2.66667" stroke-linecap="round" stroke-linejoin="round"></path>
  </g>
  <path d="M72 29.3333C72 29.3333 82.6667 24 82.6667 16V6.66663L72 2.66663L61.3334 6.66663V16C61.3334 24 72 29.3333 72 29.3333Z" fill="#C2CCDF" stroke="#C2CCDF" stroke-width="2.66667" stroke-linecap="round" stroke-linejoin="round"></path>
  <path d="M138.667 28V25.3333C138.667 23.9188 138.105 22.5623 137.105 21.5621C136.104 20.5619 134.748 20 133.333 20H122.667C121.252 20 119.896 20.5619 118.895 21.5621C117.895 22.5623 117.333 23.9188 117.333 25.3333V28" fill="#C2CCDF"></path>
  <path d="M138.667 28V25.3333C138.667 23.9188 138.105 22.5623 137.105 21.5621C136.104 20.5619 134.748 20 133.333 20H122.667C121.252 20 119.896 20.5619 118.895 21.5621C117.895 22.5623 117.333 23.9188 117.333 25.3333V28H138.667Z" stroke="#C2CCDF" stroke-width="2.66667" stroke-linecap="round" stroke-linejoin="round"></path>
  <path d="M128 14.6667C130.945 14.6667 133.333 12.2789 133.333 9.33333C133.333 6.38781 130.945 4 128 4C125.054 4 122.667 6.38781 122.667 9.33333C122.667 12.2789 125.054 14.6667 128 14.6667Z" fill="#C2CCDF" stroke="#C2CCDF" stroke-width="2.66667" stroke-linecap="round" stroke-linejoin="round"></path>
  <path d="M170.667 4H178.667C180.081 4 181.438 4.5619 182.438 5.5621C183.438 6.56229 184 7.91885 184 9.33333V28C184 26.9391 183.579 25.9217 182.828 25.1716C182.078 24.4214 181.061 24 180 24H170.667V4Z" fill="#C2CCDF" stroke="#C2CCDF" stroke-width="2.66667" stroke-linecap="round" stroke-linejoin="round"></path>
  <path d="M197.333 4H189.333C187.919 4 186.562 4.5619 185.562 5.5621C184.562 6.56229 184 7.91885 184 9.33333V28C184 26.9391 184.421 25.9217 185.172 25.1716C185.922 24.4214 186.939 24 188 24H197.333V4Z" fill="#C2CCDF" stroke="#C2CCDF" stroke-width="2.66667" stroke-linecap="round" stroke-linejoin="round"></path>
  <defs>
    <clipPath id="clip0_13457_23134">
      <rect width="32" height="32" fill="white"></rect>
    </clipPath>
  </defs>
</svg>
