<?xml version="1.0" encoding="UTF-8"?>
<svg xmlns="http://www.w3.org/2000/svg" width="200" height="32" viewBox="0 0 200 32" fill="none">
  <path d="M28 13.3333C28 22.6666 16 30.6666 16 30.6666C16 30.6666 4 22.6666 4 13.3333C4 10.1507 5.26428 7.09847 7.51472 4.84803C9.76515 2.59759 12.8174 1.33331 16 1.33331C19.1826 1.33331 22.2348 2.59759 24.4853 4.84803C26.7357 7.09847 28 10.1507 28 13.3333Z" fill="#C2CCDF" stroke="#C2CCDF" stroke-width="2.66667" stroke-linecap="round" stroke-linejoin="round"></path>
  <path d="M16 17.3333C18.2091 17.3333 20 15.5425 20 13.3333C20 11.1242 18.2091 9.33331 16 9.33331C13.7909 9.33331 12 11.1242 12 13.3333C12 15.5425 13.7909 17.3333 16 17.3333Z" fill="#F1F4FB" stroke="#F1F4FB" stroke-width="2.66667" stroke-linecap="round" stroke-linejoin="round"></path>
  <path d="M82.6666 28V25.3333C82.6666 23.9188 82.1047 22.5623 81.1045 21.5621C80.1043 20.5619 78.7477 20 77.3333 20H66.6666C65.2521 20 63.8955 20.5619 62.8953 21.5621C61.8952 22.5623 61.3333 23.9188 61.3333 25.3333V28" fill="#C2CCDF"></path>
  <path d="M82.6666 28V25.3333C82.6666 23.9188 82.1047 22.5623 81.1045 21.5621C80.1043 20.5619 78.7477 20 77.3333 20H66.6666C65.2521 20 63.8955 20.5619 62.8953 21.5621C61.8952 22.5623 61.3333 23.9188 61.3333 25.3333V28H82.6666Z" stroke="#C2CCDF" stroke-width="2.66667" stroke-linecap="round" stroke-linejoin="round"></path>
  <path d="M72.0001 14.6667C74.9456 14.6667 77.3334 12.2789 77.3334 9.33333C77.3334 6.38781 74.9456 4 72.0001 4C69.0546 4 66.6667 6.38781 66.6667 9.33333C66.6667 12.2789 69.0546 14.6667 72.0001 14.6667Z" fill="#C2CCDF" stroke="#C2CCDF" stroke-width="2.66667" stroke-linecap="round" stroke-linejoin="round"></path>
  <path d="M129.333 2.66669L116 18.6667H128L126.667 29.3334L140 13.3334H128L129.333 2.66669Z" fill="#C2CCDF" stroke="#C2CCDF" stroke-width="2.66667" stroke-linecap="round" stroke-linejoin="round"></path>
  <path d="M169.333 8.00002V29.3334L178.667 24L189.333 29.3334L198.667 24V2.66669L189.333 8.00002L178.667 2.66669L169.333 8.00002Z" fill="#C2CCDF" stroke="#C2CCDF" stroke-width="2.66667" stroke-linecap="round" stroke-linejoin="round"></path>
  <path d="M178.667 2.66669V24" stroke="#C2CCDF" stroke-width="2.66667" stroke-linecap="round" stroke-linejoin="round"></path>
  <path d="M189.333 8V29.3333" stroke="#C2CCDF" stroke-width="2.66667" stroke-linecap="round" stroke-linejoin="round"></path>
</svg>
