<?xml version="1.0" encoding="UTF-8"?>
<svg xmlns="http://www.w3.org/2000/svg" width="29" height="28" viewBox="0 0 29 28" fill="none">
  <g clip-path="url(#clip0_3253_12664)">
    <path d="M13.9814 13.3711L2.2345 25.6758C2.71028 27.3711 4.47122 28.3555 6.16653 27.8742C6.42356 27.8031 6.66965 27.6992 6.89934 27.5625L20.1173 20.0375L13.9814 13.3711Z" fill="#EA4335"></path>
    <path d="M25.8596 11.2821L20.1447 8.00635L13.708 13.6556L20.1666 20.0267L25.8377 16.7892C27.358 15.9907 27.9432 14.1149 27.1502 12.5946C26.8549 12.0368 26.401 11.5774 25.8377 11.2821H25.8596Z" fill="#FBBC04"></path>
    <path d="M2.23452 2.32959C2.16343 2.59209 2.13062 2.86553 2.13062 3.1335V24.8718C2.13062 25.1452 2.1689 25.4132 2.23452 25.6757L14.3806 13.6882L2.23452 2.32959Z" fill="#4285F4"></path>
    <path d="M14.0689 14.0055L20.1447 8.01174L6.94309 0.448461C6.44543 0.153148 5.88215 2.345e-05 5.30793 2.345e-05C3.88059 -0.0054453 2.62278 0.946117 2.2345 2.31877L14.0689 14.0055Z" fill="#34A853"></path>
  </g>
  <defs>
    <clipPath id="clip0_3253_12664">
      <rect width="28" height="28" fill="white" transform="translate(0.818115)"></rect>
    </clipPath>
  </defs>
</svg>
