<?xml version="1.0" encoding="UTF-8"?>
<svg xmlns="http://www.w3.org/2000/svg" width="37" height="36" viewBox="0 0 37 36" fill="none">
  <path d="M28.1558 30.8006L28.2158 30.8021C28.8336 30.8333 29.3249 31.3442 29.3249 31.9697C29.3249 32.5953 28.8336 33.1061 28.2158 33.1374L28.1558 33.1388H8.08904C7.44335 33.1388 6.91992 32.6154 6.91992 31.9697C6.91992 31.324 7.44335 30.8006 8.08904 30.8006H28.1558Z" fill="#1C2129"></path>
  <path d="M12.6484 16.5312C12.9448 16.5312 13.2006 16.6376 13.4141 16.8506C13.6267 17.0644 13.7333 17.3182 13.7334 17.6143C13.7328 17.911 13.6264 18.166 13.4141 18.3789C13.2006 18.5929 12.9448 18.6992 12.6484 18.6992C12.3518 18.6991 12.1021 18.5927 11.8984 18.3789C11.6947 18.166 11.5928 17.9116 11.5928 17.6143C11.5928 17.3181 11.6949 17.0639 11.8984 16.8506C12.1021 16.6377 12.3523 16.5314 12.6484 16.5312Z" fill="#1C2129"></path>
  <path d="M24.3799 16.5312C24.6762 16.5312 24.9256 16.6376 25.1299 16.8506C25.3337 17.0645 25.4355 17.318 25.4355 17.6143C25.4355 17.9111 25.3337 18.166 25.1299 18.3789C24.9258 18.5927 24.6756 18.6992 24.3799 18.6992C24.083 18.6992 23.8282 18.5927 23.6152 18.3789C23.4019 18.166 23.2949 17.9116 23.2949 17.6143C23.295 17.318 23.402 17.064 23.6152 16.8506C23.8283 16.6376 24.0829 16.5313 24.3799 16.5312Z" fill="#1C2129"></path>
  <path fill-rule="evenodd" clip-rule="evenodd" d="M33.3301 2.86133C35.0807 2.8614 36.5 4.2806 36.5 6.03125V26.1406C36.4998 27.8911 35.0806 29.3105 33.3301 29.3105H3.66992C1.91937 29.3105 0.500218 27.8911 0.5 26.1406V6.03125C0.5 4.28056 1.91923 2.86134 3.66992 2.86133H33.3301ZM26.6602 8.88574C26.419 8.77367 26.233 8.83109 26.1035 9.05273L24.1025 12.7227C22.3415 11.9441 20.4787 11.5537 18.5146 11.5537C16.5503 11.5537 14.6879 11.9443 12.9277 12.7227L10.9258 9.05273C10.7958 8.83114 10.6106 8.77427 10.3701 8.88574C10.1476 9.01624 10.1016 9.20052 10.2314 9.44141L12.2051 13.083C10.2037 14.1036 8.6098 15.5253 7.42383 17.3506C6.23798 19.1768 5.64459 21.1723 5.64453 23.3408H31.3574C31.3574 21.1728 30.7639 19.1772 29.5781 17.3506C28.392 15.5252 26.8067 14.1037 24.8242 13.083L26.7988 9.44141C26.928 9.2007 26.882 9.01561 26.6602 8.88574Z" fill="#1C2129"></path>
  <path d="M26.1035 9.05278C26.233 8.83127 26.4191 8.77378 26.6602 8.88579C26.8819 9.01564 26.9279 9.20082 26.7988 9.44146L24.8242 13.0831C26.8067 14.1037 28.3921 15.5254 29.5781 17.3506C30.7638 19.1772 31.3573 21.1729 31.3574 23.3409H5.64453C5.64463 21.1724 6.23801 19.1768 7.42383 17.3506C8.60979 15.5254 10.2038 14.1037 12.2051 13.0831L10.2314 9.44146C10.1017 9.20064 10.1476 9.01627 10.3701 8.88579C10.6105 8.77438 10.7958 8.83132 10.9258 9.05278L12.9277 12.7227C14.6879 11.9443 16.5504 11.5538 18.5146 11.5538C20.4787 11.5538 22.3415 11.9441 24.1025 12.7227L26.1035 9.05278ZM12.6484 16.5313C12.3523 16.5314 12.1021 16.6379 11.8984 16.8506C11.8475 16.904 11.8029 16.9601 11.7646 17.0186C11.7265 17.077 11.6944 17.1377 11.6689 17.2012C11.6434 17.2649 11.6251 17.3315 11.6123 17.4004C11.5996 17.4691 11.5928 17.5404 11.5928 17.6143C11.5928 17.7257 11.6071 17.8313 11.6357 17.9307C11.6549 17.9971 11.68 18.061 11.7119 18.1221C11.7597 18.2137 11.8221 18.2991 11.8984 18.379C12.0002 18.4858 12.1134 18.5658 12.2383 18.6192C12.3633 18.6726 12.5 18.6992 12.6484 18.6993C12.7226 18.6993 12.7942 18.6931 12.8633 18.6797C13.0702 18.6398 13.254 18.5394 13.4141 18.379C13.5468 18.2459 13.6385 18.0966 13.6885 17.9307C13.7085 17.8644 13.7218 17.7953 13.7285 17.7237C13.7319 17.6879 13.7333 17.6513 13.7334 17.6143C13.7333 17.4294 13.6915 17.261 13.6084 17.1084C13.5752 17.0474 13.5358 16.9886 13.4893 16.9327C13.466 16.9047 13.4407 16.8774 13.4141 16.8506C13.3873 16.824 13.3601 16.7988 13.332 16.7754C13.2761 16.729 13.2174 16.6895 13.1562 16.6563C13.0031 16.5731 12.8337 16.5313 12.6484 16.5313ZM24.3799 16.5313C24.1941 16.5313 24.0249 16.573 23.8721 16.6563C23.8112 16.6895 23.7529 16.7291 23.6973 16.7754C23.6692 16.7988 23.642 16.8239 23.6152 16.8506C23.5619 16.904 23.5156 16.9602 23.4756 17.0186C23.4356 17.077 23.4017 17.1377 23.375 17.2012C23.3482 17.265 23.3288 17.3315 23.3154 17.4004C23.3021 17.4691 23.2949 17.5404 23.2949 17.6143C23.2949 17.7257 23.3098 17.8313 23.3398 17.9307C23.3599 17.9971 23.3865 18.061 23.4199 18.1221C23.47 18.2137 23.5353 18.2991 23.6152 18.379C23.775 18.5393 23.9582 18.6398 24.165 18.6797C24.234 18.6931 24.3057 18.6993 24.3799 18.6993C24.4537 18.6993 24.5247 18.693 24.5928 18.6797C24.7976 18.6398 24.9767 18.5394 25.1299 18.379C25.2318 18.2725 25.3085 18.1558 25.3594 18.0284C25.3976 17.9328 25.4211 17.8311 25.4307 17.7237C25.4338 17.6879 25.4355 17.6514 25.4355 17.6143C25.4355 17.3182 25.3337 17.0645 25.1299 16.8506C25.1042 16.8239 25.0779 16.7988 25.0508 16.7754C24.997 16.729 24.9403 16.6895 24.8809 16.6563C24.7319 16.5732 24.5651 16.5313 24.3799 16.5313Z" fill="#32DE84"></path>
</svg>
