<?xml version="1.0" encoding="UTF-8"?>
<svg xmlns="http://www.w3.org/2000/svg" width="50" height="51" viewBox="0 0 50 51" fill="none">
  <path d="M25 0.964844C11.1914 0.964844 0 12.1563 0 25.9648C0 35.2031 5.0293 43.2598 12.4805 47.5762L17.4902 38.9336C13.0176 36.3359 10 31.5117 10 25.9648C10 17.6836 16.7188 10.9648 25 10.9648C33.2812 10.9648 40 17.6836 40 25.9648C40 31.5117 36.9824 36.3359 32.5098 38.9336L37.5195 47.5762C44.9707 43.2598 50 35.2031 50 25.9648C50 12.1563 38.8086 0.964844 25 0.964844Z" fill="#FF7A24"></path>
  <path d="M17.5 25.9648C17.5 21.8242 20.8594 18.4648 25 18.4648C29.1406 18.4648 32.5 21.8242 32.5 25.9648C32.5 29.1777 30.459 31.9023 27.6172 32.9668L30.8887 50.2422C28.9941 50.7012 27.0313 50.9648 25 50.9648C22.9688 50.9648 21.0059 50.7012 19.1211 50.2422L22.3828 32.9668C19.5313 31.9023 17.5 29.1777 17.5 25.9648Z" fill="#2E3C6D"></path>
</svg>
