<?xml version="1.0" encoding="UTF-8"?>
<svg xmlns="http://www.w3.org/2000/svg" width="326" height="40" viewBox="0 0 326 40" fill="none">
  <g clip-path="url(#clip0_2455_34955)">
    <path d="M19.4161 12.1872C18.453 12.5774 17.5187 13.0353 16.6204 13.5577C13.8794 14.9282 11.1658 16.3809 8.21469 17.29C6.21377 17.9022 4.19002 18.3042 2.08403 17.9067C0.750092 17.6555 -0.0447914 16.8423 0.00089161 15.8053C0.000811236 15.5731 0.0698458 15.3462 0.199201 15.1534C0.328557 14.9606 0.512379 14.8106 0.727251 14.7226C5.63817 12.4385 10.6496 10.4741 16.0265 9.61529C17.3604 9.40058 18.7309 9.22241 20.1014 9.02141C17.968 7.96613 12.687 8.31789 7.55685 11.0223C7.50203 10.264 7.42894 9.51022 7.40153 8.73817C7.34062 7.02049 7.28276 5.29368 7.22794 3.55773C7.18225 1.95882 8.08221 0.949229 9.36133 0.181755C9.48011 0.113231 9.60345 0.0584113 9.72679 -0.000976562H12.084C12.9761 0.200106 13.8814 0.337502 14.793 0.41017C17.0289 0.716484 19.2429 1.16509 21.4216 1.75325C21.8016 1.85183 22.1513 2.04267 22.4398 2.30884C22.7283 2.57501 22.9466 2.90827 23.0754 3.27906C23.4996 4.3993 23.8297 5.55299 24.0621 6.72812C24.254 7.64178 24.2677 7.64178 25.1996 7.45905C26.8809 7.12484 28.6168 7.18583 30.2704 7.63721C31.434 7.9389 32.4627 8.62243 33.1916 9.57831C33.9205 10.5342 34.3075 11.7071 34.2905 12.909C34.2219 16.2299 33.2232 19.465 31.4079 22.2466C30.1631 24.2303 28.7591 26.1095 27.2097 27.8656C27.1317 27.928 27.0671 28.0054 27.0198 28.0934C26.9725 28.1813 26.9435 28.2779 26.9346 28.3774C26.9256 28.4768 26.9368 28.577 26.9676 28.672C26.9984 28.767 27.0481 28.8548 27.1137 28.93C28.1325 30.5518 29.1009 32.2101 30.0877 33.8547C30.1928 34.0283 30.2704 34.2156 30.3755 34.4211C27.2599 34.1059 25.1448 35.4033 23.9479 38.2996C22.9657 36.518 21.9927 34.7866 21.0562 33.0369C20.846 32.6486 20.6953 32.5344 20.2293 32.7126C17.4763 33.6934 14.5367 34.0371 11.6318 33.7176C9.17403 33.5075 7.7807 31.8903 7.12743 29.6062C6.62048 27.655 6.50097 25.6234 6.77567 23.6263C6.86704 22.7811 6.98582 21.936 7.09546 21.0908C7.10606 20.8193 7.20018 20.5577 7.36499 20.3416C7.36499 21.534 7.30103 22.6669 7.36499 23.7907C7.48376 25.5541 7.82181 27.2672 8.89536 28.7473C10.2659 30.6614 12.2257 31.3147 14.4367 31.0315C22.5865 30.031 27.4518 24.9602 30.5262 17.7834C31.2329 16.1733 31.646 14.4498 31.746 12.6943C31.8465 10.6614 31.0744 9.24526 29.0324 8.52346C27.6619 8.04379 26.2458 8.18084 24.8387 8.21739C24.7745 8.20852 24.709 8.21649 24.6487 8.24051C24.5885 8.26454 24.5355 8.3038 24.495 8.35446C24.4545 8.40511 24.4278 8.46542 24.4176 8.52948C24.4074 8.59354 24.4139 8.65916 24.4367 8.7199C24.5098 9.05339 24.4367 9.43712 25.0123 9.48281C26.4195 9.56012 27.802 9.88487 29.0964 10.4421C29.9781 10.8396 30.8095 11.3558 31.079 12.3471C31.4399 13.6856 30.7684 14.6678 29.8045 15.481C28.8071 16.2769 27.6563 16.8585 26.4239 17.1895C26.2262 17.2336 26.0465 17.3367 25.9086 17.4852C25.7708 17.6337 25.6812 17.8205 25.6519 18.021C25.195 19.8985 24.656 21.7624 24.1489 23.6308C24.1411 23.7456 24.1053 23.8568 24.0448 23.9547C23.9843 24.0526 23.9009 24.1343 23.8017 24.1927C23.9479 22.9913 24.0895 21.8538 24.222 20.7162C24.3323 19.6815 24.3583 18.6396 24.2997 17.6007C24.2997 17.4088 24.2722 17.2032 24.0849 17.121C23.8976 17.0388 23.6966 17.1941 23.5413 17.3357C22.8515 17.9707 22.5911 18.8295 22.3627 19.8848C22.0064 19.2909 21.7414 18.8478 21.481 18.4047C20.5306 16.6429 19.1188 15.1727 17.397 14.1516C16.9401 13.9049 17.0818 13.745 17.397 13.544L19.4527 12.274C20.6496 11.8172 21.8008 11.2005 23.1073 11.0497C24.021 10.9447 24.9347 10.8898 25.8483 10.8122C23.5276 10.4376 21.4125 11.036 19.4161 12.1872Z" fill="#9E69D1"></path>
    <path d="M43.1067 23.0217H43.3169C44.2625 22.9349 45.0985 22.9212 45.2858 24.2186C45.3817 24.881 46.035 25.2556 46.6563 25.4977C47.9304 26.0185 49.3474 26.0735 50.6581 25.6531C51.0432 25.5591 51.3894 25.3477 51.6489 25.0481C51.9084 24.7485 52.0682 24.3756 52.1063 23.9811C52.2068 23.1314 51.6494 22.6608 51.0281 22.2817C49.6577 21.4731 48.0999 21.2035 46.5923 20.8061C45.5294 20.5953 44.4999 20.2418 43.5316 19.7554C42.8616 19.3798 42.3323 18.796 42.024 18.0925C40.7952 15.3104 41.4576 11.1807 46.1355 10.4132C47.7083 10.1199 49.3251 10.1588 50.882 10.5274C52.0193 10.7756 53.0444 11.389 53.8007 12.274C54.557 13.159 55.0032 14.267 55.0711 15.4292C55.1031 15.7581 54.998 15.8312 54.7102 15.8267C54.0386 15.8267 53.3671 15.8267 52.6956 15.8038C52.4142 15.8068 52.1382 15.7263 51.9024 15.5727C51.6667 15.419 51.4817 15.199 51.3708 14.9404C50.6033 13.1131 47.3095 13.0263 46.0578 13.7618C44.9523 14.4059 44.6051 16.087 46.0578 16.8271C46.642 17.1091 47.2546 17.3281 47.8852 17.4804C49.5415 17.8653 51.1762 18.338 52.7824 18.8965C55.336 19.8742 55.9802 22.0944 55.6101 24.3511C55.2401 26.6078 53.897 28.0057 51.7042 28.6179C49.612 29.2136 47.3931 29.1993 45.3086 28.5768C42.9194 27.8504 41.654 26.1464 41.2748 23.707C41.2109 23.2501 41.2748 22.9441 41.855 23.0217C42.2718 23.0494 42.6899 23.0494 43.1067 23.0217Z" fill="#9E69D1"></path>
    <path d="M84.5048 22.6159C83.2074 22.6159 81.91 22.6159 80.6172 22.6159C80.1969 22.6159 80.0507 22.6935 80.1101 23.1549C80.2517 24.2559 80.6355 25.2061 81.7547 25.5853C82.8739 25.9644 84.0389 25.8776 84.9297 24.9046C85.0659 24.7468 85.2352 24.6209 85.4254 24.5357C85.6156 24.4504 85.8222 24.4079 86.0306 24.4112C86.7935 24.4112 87.5564 24.4386 88.3148 24.4112C88.7716 24.4112 88.7716 24.562 88.6528 24.9366C88.2761 26.0357 87.5786 26.9966 86.6502 27.6953C85.7219 28.394 84.6054 28.7983 83.445 28.8562C81.8004 28.943 80.2152 28.8013 78.8401 27.7598C78.1527 27.2269 77.5842 26.5562 77.1712 25.7908C76.7581 25.0253 76.5097 24.1819 76.4418 23.3148C76.1903 21.688 76.3153 20.0251 76.8072 18.4541C77.1687 17.2984 77.8973 16.2921 78.8826 15.588C79.8678 14.8839 81.0558 14.5205 82.2664 14.5528C83.212 14.506 84.1585 14.6266 85.0622 14.9091C87.4285 15.736 88.4929 17.5588 88.8858 19.8977C88.9901 20.6071 89.042 21.3232 89.0411 22.0403C89.0411 22.4971 88.9269 22.6433 88.4564 22.6341C87.1407 22.5976 85.8205 22.6159 84.5048 22.6159ZM85.2449 20.2449C85.2083 19.9891 85.1855 19.7881 85.149 19.5871C85.0572 18.9872 84.7355 18.4466 84.252 18.0799C83.7684 17.7132 83.1611 17.5492 82.5587 17.6227C81.9412 17.6161 81.3442 17.8439 80.8881 18.2602C80.432 18.6764 80.1507 19.2502 80.101 19.8657C80.101 20.117 80.069 20.2495 80.3797 20.2495C81.9923 20.2403 83.6049 20.2449 85.2449 20.2449Z" fill="#9E69D1"></path>
    <path d="M97.4883 14.8311C98.7263 14.8311 99.8592 14.8585 100.992 14.8311C101.449 14.8311 101.568 15.0138 101.673 15.393C102.504 18.3258 103.34 21.2632 104.254 24.3834L105.168 21.318C105.67 19.5729 106.163 17.8233 106.68 16.0782C106.954 15.1645 107.388 14.8356 108.333 14.8311H110.846C110.321 16.4208 109.818 17.9603 109.306 19.4953C108.113 23.0525 106.917 26.6096 105.72 30.1668L105.583 30.5551C104.747 32.8804 103.756 33.5748 101.303 33.5793C99.4755 33.5793 99.4755 33.5793 99.4755 31.7246C99.4846 31.6091 99.4846 31.493 99.4755 31.3774C99.3796 30.8201 99.5669 30.546 100.17 30.6556C100.285 30.6716 100.402 30.6716 100.517 30.6556C102.239 30.5551 102.719 29.8425 102.153 28.2116C100.685 23.9966 99.2197 19.78 97.7578 15.562L97.4883 14.8311Z" fill="#9E69D1"></path>
    <path d="M68.5701 21.258C68.6288 22.3729 68.5845 23.4907 68.4376 24.5974C68.2763 25.6607 67.7675 26.6407 66.9907 27.3845C66.2139 28.1283 65.2127 28.5939 64.1434 28.7089C62.8458 28.951 61.5155 28.9602 60.2147 28.7363C59.5347 28.5911 58.8996 28.2846 58.3628 27.8427C57.826 27.4008 57.4033 26.8364 57.1301 26.197C56.857 25.5576 56.7415 24.8619 56.7933 24.1686C56.8452 23.4752 57.0628 22.8045 57.428 22.2128C58.1498 21.0113 59.397 20.5773 60.6624 20.2758C61.6674 20.0383 62.6998 19.9149 63.714 19.7139C64.0071 19.652 64.289 19.5457 64.55 19.3987C64.7285 19.3133 64.8744 19.1723 64.9659 18.9968C65.0573 18.8213 65.0893 18.6209 65.0571 18.4257C65.0476 18.2382 64.9761 18.0592 64.8536 17.917C64.7312 17.7747 64.5649 17.6772 64.381 17.6399C63.1201 17.3338 61.8364 16.9912 60.8177 18.2247C60.6944 18.3754 60.5208 18.3206 60.3609 18.3206C59.4838 18.3206 58.6066 18.3206 57.725 18.3206C57.2681 18.3206 57.2681 18.179 57.3595 17.8044C57.5557 17.0247 57.9761 16.3196 58.5689 15.7764C59.1616 15.2332 59.9006 14.8757 60.6944 14.7482C62.3696 14.3637 64.1165 14.4251 65.7606 14.9263C67.661 15.5065 68.5016 16.6486 68.561 18.6404C68.5838 19.4261 68.5701 20.2119 68.5701 21.258ZM65.1484 21.7468C64.0703 22.2493 62.9557 22.4046 61.8775 22.7062C61.6118 22.7772 61.3544 22.8767 61.1101 23.0031C60.8187 23.1682 60.5853 23.419 60.4414 23.7214C60.2976 24.0238 60.2503 24.3632 60.3061 24.6934C60.3319 25.005 60.4594 25.2995 60.6691 25.5314C60.8788 25.7634 61.159 25.92 61.4664 25.9771C62.9922 26.3014 64.9794 25.5979 65.121 23.2772C65.1759 22.7975 65.1484 22.3133 65.1484 21.7468Z" fill="#9E69D1"></path>
    <path d="M114.445 20.0112C114.445 17.3753 114.445 14.7394 114.445 12.1035C114.445 11.5416 114.614 11.4091 115.144 11.4228C117.355 11.4913 119.576 11.3314 121.787 11.633C125.569 12.1492 127.977 14.7851 128.223 18.6042C128.342 20.4315 128.246 22.1629 127.465 23.8075C126.181 26.4708 123.998 27.9509 121.156 28.4351C119.073 28.7823 116.958 28.5311 114.861 28.6042C114.404 28.6042 114.468 28.3392 114.468 28.0651L114.445 20.0112ZM116.519 20.0112C116.519 22.0487 116.519 24.0816 116.519 26.119C116.519 26.6535 116.67 26.7769 117.182 26.7632C118.287 26.7266 119.397 26.7631 120.503 26.6307C121.719 26.5296 122.876 26.0633 123.823 25.2929C124.769 24.5225 125.461 23.484 125.807 22.3136C126.073 21.307 126.18 20.2652 126.126 19.2255C126.017 16.3383 124.601 14.415 122.015 13.6521C120.32 13.1542 118.58 13.3141 116.853 13.2912C116.396 13.2912 116.547 13.6156 116.547 13.8349C116.515 15.9043 116.519 17.9646 116.519 20.0249V20.0112Z" fill="#9E69D1"></path>
    <path d="M96.4056 15.7397C96.4096 16.1844 96.2409 16.6134 95.935 16.9364C95.6291 17.2593 95.2099 17.451 94.7656 17.471C94.4092 17.4939 94.3087 17.5944 94.3087 17.9553C94.3087 20.3125 94.3087 22.6743 94.3087 25.0316C94.3087 25.6894 94.6011 25.9133 95.4143 25.9452C96.3919 25.9955 96.3919 25.9955 96.3919 27.0005V27.0645C96.3919 28.7319 96.3919 28.7319 94.7199 28.6634C94.0712 28.6405 93.4271 28.6086 92.7784 28.5766C92.4987 28.5854 92.2204 28.5357 91.961 28.4308C91.7017 28.3258 91.4671 28.1679 91.2723 27.967C91.0776 27.7662 90.9268 27.527 90.8298 27.2646C90.7328 27.0022 90.6916 26.7224 90.7089 26.4432C90.7089 23.9215 90.7089 21.4181 90.7089 18.8781C90.7089 16.4295 90.7363 13.9763 90.7089 11.5231V10.7922H91.4627H92.4312C92.6796 10.78 92.9279 10.8196 93.1602 10.9084C93.3926 10.9972 93.604 11.1333 93.7809 11.3082C93.9579 11.483 94.0966 11.6926 94.1882 11.9239C94.2799 12.1551 94.3225 12.4029 94.3133 12.6515C94.3133 13.2545 94.3133 13.8575 94.3133 14.456C94.3133 14.8351 94.3955 15.0133 94.8067 14.9722C95.0808 14.9402 95.364 14.9996 95.6381 14.9722H96.4239L96.4056 15.7397Z" fill="#9E69D1"></path>
    <path d="M75.5825 11.4231C75.5825 11.7017 75.5825 11.8799 75.5825 12.1129V13.7392H74.2622C73.5085 13.8351 73.0608 14.9498 73.4034 15.5254C73.4902 15.6716 73.6364 15.6488 73.7689 15.6488C74.116 15.6488 74.4587 15.6488 74.8104 15.6488H75.6327L75.5962 16.4208C75.5094 17.4624 74.952 18.1111 73.9059 18.1293C73.3806 18.1293 73.376 18.3943 73.376 18.7735C73.376 21.784 73.376 24.7899 73.3988 27.8004C73.3988 28.4583 73.2024 28.6501 72.5857 28.5725C72.2403 28.5519 71.894 28.5519 71.5487 28.5725C69.8584 28.5725 69.8584 28.5725 69.8584 26.9096V14.2737C69.8584 12.0763 71.0873 10.8246 73.2709 10.7881C73.8511 10.7881 74.4313 10.7881 75.0069 10.7881H75.5779L75.5825 11.4231Z" fill="#9E69D1"></path>
    <path d="M141.083 25.8448C141.083 26.0869 141.106 26.1783 141.106 26.2696C141.133 27.9325 141.064 28.0284 139.475 28.5538C138.236 28.9432 136.922 29.0309 135.642 28.8096C133.408 28.4259 132.051 27.0143 131.53 24.8397C130.987 22.5556 131.074 20.3354 132.503 18.3482C134.02 16.2331 136.263 15.6483 138.639 16.3199C140.498 16.8452 141.38 18.2934 141.8 20.0979C141.919 20.8961 141.973 21.7029 141.96 22.5099C141.96 22.9667 141.809 23.0444 141.403 23.0398C138.927 23.0398 136.455 23.0398 133.979 23.0398C133.422 23.0398 133.317 23.1403 133.39 23.7297C133.773 26.8544 136.464 27.8411 139.255 26.8909C139.913 26.6346 140.529 26.282 141.083 25.8448ZM136.615 21.2491H139.392C139.603 21.2491 139.849 21.3313 139.881 20.9476C140.009 19.7598 139.059 18.2386 137.908 17.9005C135.651 17.2335 133.897 18.8142 133.463 20.8105C133.394 21.1349 133.49 21.2673 133.842 21.2673C134.765 21.2354 135.692 21.2491 136.615 21.2491Z" fill="#9E69D1"></path>
    <path d="M163.578 25.868C163.578 26.0782 163.601 26.1695 163.601 26.2609C163.628 27.9192 163.555 28.0243 161.979 28.5451C160.741 28.9405 159.426 29.0298 158.146 28.8055C155.908 28.4263 154.551 27.0193 154.035 24.8447C153.482 22.5378 153.605 20.3039 155.03 18.2892C157.127 15.329 161.508 15.5483 163.185 17.6588C164.386 19.1846 164.51 20.9526 164.441 22.7753C164.441 23.191 164.053 23.0174 163.843 23.0174C161.39 23.0174 158.941 23.0174 156.488 23.0174C155.953 23.0174 155.812 23.0951 155.885 23.6981C156.282 26.8959 159.083 27.8096 161.824 26.8457C162.442 26.5841 163.03 26.2563 163.578 25.868ZM159.073 21.2495C160.019 21.2495 160.969 21.2495 161.915 21.2495C162.166 21.2495 162.335 21.2495 162.372 20.8977C162.392 20.2374 162.201 19.5877 161.827 19.0436C161.452 18.4995 160.913 18.0895 160.289 17.8735C158.311 17.3116 156.451 18.6045 155.958 20.7835C155.871 21.1627 156.017 21.2404 156.378 21.2404C157.287 21.2358 158.187 21.2495 159.073 21.2495Z" fill="#9E69D1"></path>
    <path d="M217.036 25.8677C217.036 26.0732 217.063 26.1646 217.063 26.256C217.095 27.9051 217.008 28.0239 215.446 28.5401C214.208 28.9324 212.894 29.0233 211.613 28.8051C209.375 28.4259 208.013 27.0189 207.502 24.8444C206.944 22.5602 207.072 20.3081 208.493 18.2889C210.581 15.324 214.966 15.5205 216.643 17.6447C217.849 19.1705 217.977 20.9385 217.899 22.7612C217.899 23.1861 217.52 23.0125 217.31 23.0125C214.857 23.0125 212.408 23.0125 209.955 23.0125C209.425 23.0125 209.274 23.081 209.352 23.6932C209.749 26.891 212.55 27.8046 215.291 26.8407C215.906 26.58 216.491 26.2537 217.036 25.8677ZM212.568 21.2491C213.482 21.2491 214.395 21.2491 215.345 21.2491C215.551 21.2491 215.802 21.3359 215.834 20.9522C215.866 20.2914 215.686 19.6377 215.32 19.0863C214.955 18.5349 214.422 18.1147 213.801 17.8869C211.677 17.2747 209.873 18.7229 209.42 20.806C209.352 21.1258 209.42 21.2628 209.795 21.2628C210.718 21.2354 211.645 21.2491 212.568 21.2491Z" fill="#9E69D1"></path>
    <path d="M199.648 26.6077C199.934 25.3942 200.32 24.2069 200.804 23.0581C201.544 21.0024 202.303 18.9467 203.029 16.8955C203.161 16.5209 203.312 16.3564 203.746 16.3564C205.372 16.3564 205.368 16.3564 204.76 17.8594C203.413 21.2217 202.06 24.5977 200.736 27.9782C200.695 28.1742 200.581 28.3473 200.417 28.4626C200.254 28.5779 200.052 28.6269 199.854 28.5995C198.515 28.5629 198.515 28.5995 198.027 27.2792C196.656 23.6703 195.286 20.0613 193.874 16.3564H195.843C196.208 16.3564 196.19 16.6671 196.268 16.8909C197.361 20.04 198.45 23.1906 199.534 26.3427C199.564 26.4342 199.603 26.5228 199.648 26.6077Z" fill="#9E69D1"></path>
    <path d="M176.465 26.1515C176.465 26.7637 176.465 27.2434 176.465 27.723C176.469 27.838 176.435 27.951 176.367 28.0439C176.299 28.1367 176.201 28.2039 176.091 28.2347C172.587 29.8656 167.63 28.655 167.237 23.3192C167.073 21.1127 167.58 19.057 169.33 17.5494C171.349 15.8135 173.674 15.745 176.104 16.4987C176.589 16.6495 176.493 17.0104 176.483 17.3393C176.483 17.7459 176.671 18.3032 176.388 18.5225C176.104 18.7418 175.711 18.2712 175.36 18.125C172.381 16.9099 169.421 18.8149 169.298 22.0675C169.245 22.8055 169.309 23.5472 169.489 24.2648C170.211 26.8276 172.906 27.9469 175.428 26.7226C175.748 26.5627 176.036 26.38 176.465 26.1515Z" fill="#9E69D1"></path>
    <path d="M146.222 18.719C146.195 21.0032 146.177 23.2553 146.222 25.5212C146.282 28.0064 147.593 29.1028 150.078 28.8469C151.174 28.7327 151.257 28.6414 151.257 27.5404V26.846C149.059 27.6089 148.182 26.9694 148.182 24.6669V24.3883C148.182 22.9081 148.182 21.428 148.182 19.9479V18.0977L150.105 18.0383H151.261V16.3435H150.763C150.119 16.3755 149.466 16.3435 148.822 16.3663H148.168V15.7359C148.219 14.8862 148.168 14.0274 148.168 13.1685C148.168 12.8716 148.168 12.7117 147.757 12.8305L146.186 13.767V16.3709L145.012 16.3481H144.034V17.1704V18.0292H146.2L146.222 18.719Z" fill="#9E69D1"></path>
    <path d="M185.702 26.8409V27.5216C185.702 28.6088 185.57 28.755 184.473 28.8418C181.961 29.0519 180.718 27.9784 180.663 25.4613C180.612 23.2624 180.612 21.065 180.663 18.8692C180.663 18.1291 180.444 17.919 179.773 18.0286C179.64 18.0286 179.494 18.0286 179.361 18.0286C178.649 18.1611 178.498 17.8642 178.48 17.1744C178.457 16.4115 178.736 16.311 179.393 16.3338C180.654 16.3795 180.654 16.3338 180.654 15.0775V14.872C180.654 13.2593 180.654 13.2776 182.208 12.8299C182.587 12.7203 182.642 12.8071 182.637 13.1451C182.637 14.0588 182.637 14.9496 182.637 15.8496C182.637 16.2424 182.737 16.3749 183.139 16.3567C183.829 16.3247 184.51 16.3567 185.218 16.3567C185.611 16.3567 185.73 16.4572 185.734 16.8546C185.734 18.0378 185.766 18.0332 184.592 18.0424C183.971 18.0424 183.144 17.8368 182.765 18.152C182.386 18.4672 182.642 19.3672 182.632 20.0022C182.632 21.4823 182.632 22.967 182.632 24.4471V24.7806C182.637 26.9597 183.583 27.6175 185.702 26.8409Z" fill="#9E69D1"></path>
    <path d="M221.005 26.1923C221.77 26.6926 222.636 27.0186 223.541 27.147C224.16 27.2381 224.792 27.1575 225.368 26.9141C225.644 26.8193 225.885 26.6452 226.063 26.4135C226.24 26.1819 226.345 25.9031 226.364 25.6121C226.421 25.2912 226.381 24.9608 226.25 24.6624C226.119 24.364 225.903 24.1111 225.628 23.9355C224.915 23.5634 224.169 23.2576 223.399 23.0219C222.367 22.597 221.467 22.0214 221.115 20.8839C220.375 18.5998 221.869 16.4846 224.386 16.2425C225.399 16.1305 226.424 16.2316 227.396 16.5395C227.853 16.6902 228.04 16.9369 227.853 17.4029C227.835 17.446 227.82 17.4903 227.807 17.5353C227.597 18.4216 227.602 18.4033 226.775 18.0927C225.948 17.7176 225.015 17.6448 224.139 17.8871C223.809 17.9822 223.514 18.1723 223.292 18.4338C223.069 18.6953 222.928 19.0165 222.887 19.3575C222.845 19.6985 222.905 20.0441 223.059 20.3513C223.212 20.6585 223.453 20.9136 223.751 21.0849C224.16 21.2939 224.581 21.4799 225.012 21.6422C225.35 21.7793 225.711 21.8752 226.044 22.0214C227.789 22.766 228.465 23.8487 228.328 25.6304C228.209 27.0009 227.031 28.2389 225.427 28.5906C224.089 28.876 222.697 28.7843 221.407 28.3257C220.918 28.1612 220.685 27.9648 220.818 27.412C220.877 27.01 220.891 26.608 221.005 26.1923Z" fill="#9E69D1"></path>
    <path d="M191.051 22.4651C191.051 24.2924 191.051 26.1608 191.051 28.011C191.051 28.4678 190.951 28.6048 190.476 28.6003C189.005 28.6003 189.005 28.6003 189.005 27.1247C189.005 23.7487 189.005 20.3773 189.005 17.0014C189.005 16.4989 189.105 16.3298 189.644 16.3435C191.056 16.3755 191.056 16.3435 191.056 17.7506L191.051 22.4651Z" fill="#9E69D1"></path>
    <path d="M26.6341 39.9902C25.9811 40.0269 25.3322 39.8678 24.7702 39.5334C24.6798 39.4956 24.5978 39.4401 24.5292 39.3702C24.4605 39.3003 24.4065 39.2173 24.3703 39.1263C24.3341 39.0352 24.3165 38.9378 24.3185 38.8398C24.3205 38.7419 24.342 38.6453 24.3819 38.5557C25.0717 36.331 27.8995 34.5631 30.1562 34.9696C30.8871 35.1021 31.1886 35.5955 31.0699 36.4315C30.741 38.341 28.7218 39.9902 26.6341 39.9902Z" fill="#9E69D1"></path>
    <path d="M190.069 10.6739C190.328 10.6721 190.582 10.7473 190.799 10.8901C191.016 11.0328 191.185 11.2367 191.286 11.4758C191.387 11.715 191.414 11.9786 191.365 12.2334C191.316 12.4882 191.192 12.7227 191.01 12.9072C190.827 13.0916 190.594 13.2177 190.34 13.2696C190.085 13.3214 189.821 13.2967 189.581 13.1984C189.341 13.1002 189.135 12.9328 188.99 12.7176C188.845 12.5024 188.768 12.249 188.767 11.9895C188.765 11.6426 188.902 11.3093 189.146 11.0627C189.39 10.8161 189.722 10.6763 190.069 10.6739Z" fill="#9E69D1"></path>
  </g>
  <defs>
    <clipPath id="clip0_2455_34955">
      <rect width="326" height="40" fill="white"></rect>
    </clipPath>
  </defs>
</svg>
