<svg width="50" height="50" viewBox="0 0 50 50" fill="none" xmlns="http://www.w3.org/2000/svg">
<ellipse cx="24.887" cy="25.0001" rx="16.9637" ry="17.0406" fill="url(#paint0_linear_279_2746)"/>
<path d="M39.4946 11.5148C42.5733 11.0625 44.7574 11.4402 45.5229 12.7795C46.9567 15.2881 43.0098 20.4617 36.1413 25.7238C35.9338 25.8828 35.8266 26.1382 35.8267 26.3996C35.8267 28.7877 33.8993 30.7238 31.522 30.7238C31.4018 30.7238 31.2827 30.7188 31.165 30.7091C30.1058 30.6214 28.9792 30.579 28.061 31.1144C16.487 37.8633 5.53945 40.5966 3.60889 37.2199C2.81701 35.8344 3.6675 33.637 5.74365 31.0597C6.03565 30.6973 6.59674 30.7523 6.82764 31.1564C6.97457 31.4137 6.93557 31.7358 6.73975 31.9582C5.58688 33.2653 5.08927 34.2831 5.42041 34.8625C6.48417 36.722 15.6856 33.3665 25.9722 27.3683C26.3277 27.161 26.6794 26.9523 27.0278 26.744C27.1481 26.6721 27.2173 26.5396 27.2173 26.3996C27.2175 24.0117 29.1449 22.0765 31.522 22.0763C32.7946 22.0763 34.1735 22.114 35.1987 21.3599C40.3294 17.586 43.3777 14.3727 42.6733 13.1398C42.3577 12.5877 41.3254 12.4963 39.7603 12.7961C39.4756 12.8506 39.1843 12.7235 39.0405 12.4718C38.8161 12.0784 39.0465 11.5808 39.4946 11.5148Z" fill="#D7DEED"/>
<ellipse cx="31.5221" cy="26.3998" rx="2.15227" ry="2.16203" fill="#87AB49"/>
<g opacity="0.32">
<path d="M16.1941 19.1721C15.1501 21.7616 15.4794 24.4924 14.1989 23.9715C12.9184 23.4505 12.7267 20.929 13.7707 18.3394C14.8147 15.7499 16.6991 14.0729 17.9796 14.5939C19.2601 15.1148 17.2381 16.5825 16.1941 19.1721Z" fill="#EAEBEF"/>
<path d="M15.3902 26.5441C15.4835 27.3968 15.0905 28.1398 14.5123 28.2037C13.9342 28.2675 13.3899 27.6279 13.2966 26.7751C13.2034 25.9224 13.5964 25.1793 14.1746 25.1155C14.7527 25.0517 15.297 25.6913 15.3902 26.5441Z" fill="#EAEBEF"/>
</g>
<path opacity="0.1" d="M19.8788 37.9819C19.2893 37.6398 19.5718 37.0664 21.0036 36.5897C24.0227 35.924 23.5133 37.2698 27.8578 36.752C32.2023 36.2342 34.4927 34.435 35.6463 33.2515C36.5692 32.3047 37.4223 31.0234 37.3814 31.4755C37.185 32.4371 35.5994 34.9718 30.8278 37.4177C24.8633 40.4751 20.7827 38.5065 19.8788 37.9819Z" fill="black"/>
<path d="M39.0644 15.5624C39.6226 15.1908 39.7785 14.435 39.373 13.901C36.783 10.4895 33.0718 8.08941 28.8796 7.14358C24.293 6.10875 19.4857 6.89489 15.4627 9.33766C11.4396 11.7804 8.51226 15.6907 7.29248 20.2512C6.17834 24.4166 6.56759 28.83 8.36747 32.7174C8.6507 33.3291 9.39717 33.5438 9.98744 33.2183C10.5745 32.8944 10.7846 32.1584 10.5088 31.5473C9.00401 28.2131 8.68914 24.4446 9.64121 20.8851C10.6982 16.9334 13.2348 13.5451 16.7208 11.4284C20.2068 9.31176 24.3723 8.63057 28.3466 9.52725C31.923 10.3342 35.0955 12.3626 37.3345 15.2461C37.7482 15.7789 38.503 15.9361 39.0644 15.5624Z" fill="#D7DEED"/>
<path d="M14.4961 38.5213C14.0861 39.0547 14.1814 39.8234 14.7377 40.1982C17.3465 41.9563 20.37 43.0109 23.5162 43.2494C27.0664 43.5185 30.6172 42.7369 33.7299 41.001C36.8426 39.2652 39.3809 36.6513 41.031 33.4822C42.4933 30.6737 43.2013 27.5383 43.0956 24.3844C43.0731 23.7118 42.4741 23.2241 41.8067 23.2915C41.1377 23.3591 40.6541 23.9588 40.6697 24.6332C40.7313 27.3098 40.1173 29.9658 38.8759 32.3499C37.4461 35.0959 35.2467 37.3609 32.5495 38.865C29.8523 40.3692 26.7755 41.0465 23.6993 40.8132C21.0283 40.6108 18.4595 39.7296 16.2306 38.2614C15.6692 37.8916 14.9069 37.9867 14.4961 38.5213Z" fill="#D7DEED"/>
<defs>
<linearGradient id="paint0_linear_279_2746" x1="6.89723" y1="-4.14363" x2="32.7327" y2="39.6737" gradientUnits="userSpaceOnUse">
<stop offset="0.394669" stop-color="#FF3A3A"/>
<stop offset="0.72037" stop-color="#D64D12"/>
<stop offset="0.749987" stop-color="#70AF09"/>
</linearGradient>
</defs>
</svg>
