<svg width="104" height="20" viewBox="0 0 104 20" fill="none" xmlns="http://www.w3.org/2000/svg">
<path d="M18.2899 7.96464C18.1808 7.61248 17.8814 7.36236 17.5273 7.32905L12.7169 6.87326L10.8147 2.22738C10.6744 1.8869 10.355 1.6665 10.0001 1.6665C9.64518 1.6665 9.32576 1.8869 9.1855 2.22818L7.28332 6.87326L2.47211 7.32905C2.11861 7.36315 1.82004 7.61248 1.7103 7.96464C1.60056 8.3168 1.70191 8.70306 1.96932 8.94654L5.60545 12.2741L4.53324 17.2027C4.45479 17.565 4.58957 17.9396 4.87772 18.157C5.0326 18.2737 5.2138 18.3332 5.39653 18.3332C5.55408 18.3332 5.71036 18.2889 5.85062 18.2013L10.0001 15.6134L14.148 18.2013C14.4516 18.3918 14.8342 18.3744 15.1217 18.157C15.41 17.9389 15.5446 17.5642 15.4662 17.2027L14.394 12.2741L18.0301 8.94721C18.2975 8.70306 18.3996 8.31746 18.2899 7.96464Z" fill="#E3E8F6"/>
<mask id="mask0_5621_1307" style="mask-type:alpha" maskUnits="userSpaceOnUse" x="1" y="1" width="18" height="18">
<path d="M18.2899 7.96464C18.1808 7.61248 17.8814 7.36236 17.5273 7.32905L12.7169 6.87326L10.8147 2.22738C10.6744 1.8869 10.355 1.6665 10.0001 1.6665C9.64518 1.6665 9.32576 1.8869 9.1855 2.22818L7.28332 6.87326L2.47211 7.32905C2.11861 7.36315 1.82004 7.61248 1.7103 7.96464C1.60056 8.3168 1.70191 8.70306 1.96932 8.94654L5.60545 12.2741L4.53324 17.2027C4.45479 17.565 4.58957 17.9396 4.87772 18.157C5.0326 18.2737 5.2138 18.3332 5.39653 18.3332C5.55408 18.3332 5.71036 18.2889 5.85062 18.2013L10.0001 15.6134L14.148 18.2013C14.4516 18.3918 14.8342 18.3744 15.1217 18.157C15.41 17.9389 15.5446 17.5642 15.4662 17.2027L14.394 12.2741L18.0301 8.94721C18.2975 8.70306 18.3996 8.31746 18.2899 7.96464Z" fill="#E3E8F6"/>
</mask>
<g mask="url(#mask0_5621_1307)">
<rect x="1.66669" y="1.6665" width="16.6667" height="16.6667" fill="#E3E8F6"/>
</g>
<path d="M39.2899 7.96464C39.1808 7.61248 38.8814 7.36236 38.5273 7.32905L33.7169 6.87326L31.8147 2.22738C31.6744 1.8869 31.355 1.6665 31.0001 1.6665C30.6452 1.6665 30.3258 1.8869 30.1855 2.22818L28.2833 6.87326L23.4721 7.32905C23.1186 7.36315 22.82 7.61248 22.7103 7.96464C22.6006 8.3168 22.7019 8.70306 22.9693 8.94654L26.6055 12.2741L25.5332 17.2027C25.4548 17.565 25.5896 17.9396 25.8777 18.157C26.0326 18.2737 26.2138 18.3332 26.3965 18.3332C26.5541 18.3332 26.7104 18.2889 26.8506 18.2013L31.0001 15.6134L35.148 18.2013C35.4516 18.3918 35.8342 18.3744 36.1217 18.157C36.41 17.9389 36.5446 17.5642 36.4662 17.2027L35.394 12.2741L39.0301 8.94721C39.2975 8.70306 39.3996 8.31746 39.2899 7.96464Z" fill="#E3E8F6"/>
<mask id="mask1_5621_1307" style="mask-type:alpha" maskUnits="userSpaceOnUse" x="22" y="1" width="18" height="18">
<path d="M39.2899 7.96464C39.1808 7.61248 38.8814 7.36236 38.5273 7.32905L33.7169 6.87326L31.8147 2.22738C31.6744 1.8869 31.355 1.6665 31.0001 1.6665C30.6452 1.6665 30.3258 1.8869 30.1855 2.22818L28.2833 6.87326L23.4721 7.32905C23.1186 7.36315 22.82 7.61248 22.7103 7.96464C22.6006 8.3168 22.7019 8.70306 22.9693 8.94654L26.6055 12.2741L25.5332 17.2027C25.4548 17.565 25.5896 17.9396 25.8777 18.157C26.0326 18.2737 26.2138 18.3332 26.3965 18.3332C26.5541 18.3332 26.7104 18.2889 26.8506 18.2013L31.0001 15.6134L35.148 18.2013C35.4516 18.3918 35.8342 18.3744 36.1217 18.157C36.41 17.9389 36.5446 17.5642 36.4662 17.2027L35.394 12.2741L39.0301 8.94721C39.2975 8.70306 39.3996 8.31746 39.2899 7.96464Z" fill="#E3E8F6"/>
</mask>
<g mask="url(#mask1_5621_1307)">
<rect x="22.6667" y="1.6665" width="16.6667" height="16.6667" fill="#E3E8F6"/>
</g>
<path d="M60.2899 7.96464C60.1808 7.61248 59.8814 7.36236 59.5273 7.32905L54.7169 6.87326L52.8147 2.22738C52.6744 1.8869 52.355 1.6665 52.0001 1.6665C51.6452 1.6665 51.3258 1.8869 51.1855 2.22818L49.2833 6.87326L44.4721 7.32905C44.1186 7.36315 43.82 7.61248 43.7103 7.96464C43.6006 8.3168 43.7019 8.70306 43.9693 8.94654L47.6055 12.2741L46.5332 17.2027C46.4548 17.565 46.5896 17.9396 46.8777 18.157C47.0326 18.2737 47.2138 18.3332 47.3965 18.3332C47.5541 18.3332 47.7104 18.2889 47.8506 18.2013L52.0001 15.6134L56.148 18.2013C56.4516 18.3918 56.8342 18.3744 57.1217 18.157C57.41 17.9389 57.5446 17.5642 57.4662 17.2027L56.394 12.2741L60.0301 8.94721C60.2975 8.70306 60.3996 8.31746 60.2899 7.96464Z" fill="#E3E8F6"/>
<mask id="mask2_5621_1307" style="mask-type:alpha" maskUnits="userSpaceOnUse" x="43" y="1" width="18" height="18">
<path d="M60.2899 7.96464C60.1808 7.61248 59.8814 7.36236 59.5273 7.32905L54.7169 6.87326L52.8147 2.22738C52.6744 1.8869 52.355 1.6665 52.0001 1.6665C51.6452 1.6665 51.3258 1.8869 51.1855 2.22818L49.2833 6.87326L44.4721 7.32905C44.1186 7.36315 43.82 7.61248 43.7103 7.96464C43.6006 8.3168 43.7019 8.70306 43.9693 8.94654L47.6055 12.2741L46.5332 17.2027C46.4548 17.565 46.5896 17.9396 46.8777 18.157C47.0326 18.2737 47.2138 18.3332 47.3965 18.3332C47.5541 18.3332 47.7104 18.2889 47.8506 18.2013L52.0001 15.6134L56.148 18.2013C56.4516 18.3918 56.8342 18.3744 57.1217 18.157C57.41 17.9389 57.5446 17.5642 57.4662 17.2027L56.394 12.2741L60.0301 8.94721C60.2975 8.70306 60.3996 8.31746 60.2899 7.96464Z" fill="#E3E8F6"/>
</mask>
<g mask="url(#mask2_5621_1307)">
<rect x="43.6667" y="1.6665" width="16.6667" height="16.6667" fill="#E3E8F6"/>
</g>
<path d="M81.2899 7.96464C81.1808 7.61248 80.8814 7.36236 80.5273 7.32905L75.7169 6.87326L73.8147 2.22738C73.6744 1.8869 73.355 1.6665 73.0001 1.6665C72.6452 1.6665 72.3258 1.8869 72.1855 2.22818L70.2833 6.87326L65.4721 7.32905C65.1186 7.36315 64.82 7.61248 64.7103 7.96464C64.6006 8.3168 64.7019 8.70306 64.9693 8.94654L68.6055 12.2741L67.5332 17.2027C67.4548 17.565 67.5896 17.9396 67.8777 18.157C68.0326 18.2737 68.2138 18.3332 68.3965 18.3332C68.5541 18.3332 68.7104 18.2889 68.8506 18.2013L73.0001 15.6134L77.148 18.2013C77.4516 18.3918 77.8342 18.3744 78.1217 18.157C78.41 17.9389 78.5446 17.5642 78.4662 17.2027L77.394 12.2741L81.0301 8.94721C81.2975 8.70306 81.3996 8.31746 81.2899 7.96464Z" fill="#E3E8F6"/>
<mask id="mask3_5621_1307" style="mask-type:alpha" maskUnits="userSpaceOnUse" x="64" y="1" width="18" height="18">
<path d="M81.2899 7.96464C81.1808 7.61248 80.8814 7.36236 80.5273 7.32905L75.7169 6.87326L73.8147 2.22738C73.6744 1.8869 73.355 1.6665 73.0001 1.6665C72.6452 1.6665 72.3258 1.8869 72.1855 2.22818L70.2833 6.87326L65.4721 7.32905C65.1186 7.36315 64.82 7.61248 64.7103 7.96464C64.6006 8.3168 64.7019 8.70306 64.9693 8.94654L68.6055 12.2741L67.5332 17.2027C67.4548 17.565 67.5896 17.9396 67.8777 18.157C68.0326 18.2737 68.2138 18.3332 68.3965 18.3332C68.5541 18.3332 68.7104 18.2889 68.8506 18.2013L73.0001 15.6134L77.148 18.2013C77.4516 18.3918 77.8342 18.3744 78.1217 18.157C78.41 17.9389 78.5446 17.5642 78.4662 17.2027L77.394 12.2741L81.0301 8.94721C81.2975 8.70306 81.3996 8.31746 81.2899 7.96464Z" fill="#E3E8F6"/>
</mask>
<g mask="url(#mask3_5621_1307)">
<rect x="64.6667" y="1.6665" width="16.6667" height="16.6667" fill="#E3E8F6"/>
</g>
<path d="M102.29 7.96464C102.181 7.61248 101.881 7.36236 101.527 7.32905L96.7169 6.87326L94.8147 2.22738C94.6744 1.8869 94.355 1.6665 94.0001 1.6665C93.6452 1.6665 93.3258 1.8869 93.1855 2.22818L91.2833 6.87326L86.4721 7.32905C86.1186 7.36315 85.82 7.61248 85.7103 7.96464C85.6006 8.3168 85.7019 8.70306 85.9693 8.94654L89.6055 12.2741L88.5332 17.2027C88.4548 17.565 88.5896 17.9396 88.8777 18.157C89.0326 18.2737 89.2138 18.3332 89.3965 18.3332C89.5541 18.3332 89.7104 18.2889 89.8506 18.2013L94.0001 15.6134L98.148 18.2013C98.4516 18.3918 98.8342 18.3744 99.1217 18.157C99.41 17.9389 99.5446 17.5642 99.4662 17.2027L98.394 12.2741L102.03 8.94721C102.298 8.70306 102.4 8.31746 102.29 7.96464Z" fill="#E3E8F6"/>
<mask id="mask4_5621_1307" style="mask-type:alpha" maskUnits="userSpaceOnUse" x="85" y="1" width="18" height="18">
<path d="M102.29 7.96464C102.181 7.61248 101.881 7.36236 101.527 7.32905L96.7169 6.87326L94.8147 2.22738C94.6744 1.8869 94.355 1.6665 94.0001 1.6665C93.6452 1.6665 93.3258 1.8869 93.1855 2.22818L91.2833 6.87326L86.4721 7.32905C86.1186 7.36315 85.82 7.61248 85.7103 7.96464C85.6006 8.3168 85.7019 8.70306 85.9693 8.94654L89.6055 12.2741L88.5332 17.2027C88.4548 17.565 88.5896 17.9396 88.8777 18.157C89.0326 18.2737 89.2138 18.3332 89.3965 18.3332C89.5541 18.3332 89.7104 18.2889 89.8506 18.2013L94.0001 15.6134L98.148 18.2013C98.4516 18.3918 98.8342 18.3744 99.1217 18.157C99.41 17.9389 99.5446 17.5642 99.4662 17.2027L98.394 12.2741L102.03 8.94721C102.298 8.70306 102.4 8.31746 102.29 7.96464Z" fill="#E3E8F6"/>
</mask>
<g mask="url(#mask4_5621_1307)">
<rect x="85.6667" y="1.6665" width="16.6667" height="16.6667" fill="#E3E8F6"/>
</g>
</svg>
