<?xml version="1.0" encoding="UTF-8"?>
<svg xmlns="http://www.w3.org/2000/svg" width="326" height="40" viewBox="0 0 326 40" fill="none">
  <path d="M156.582 37.3232C156.13 37.3355 155.683 37.226 155.289 37.0059C154.952 36.8053 154.676 36.5172 154.491 36.1721C154.3 35.8181 154.195 35.4233 154.188 35.021C154.186 34.6356 154.272 34.2549 154.443 33.9093C154.609 33.5839 154.86 33.3095 155.169 33.1149C155.519 32.9076 155.92 32.803 156.327 32.8132C156.664 32.8071 156.997 32.8807 157.3 33.0278C157.578 33.1679 157.808 33.386 157.962 33.6552C158.154 34.024 158.237 34.4398 158.202 34.8541V35.076H155.014C155.03 35.4074 155.129 35.7296 155.301 36.0135C155.445 36.2245 155.647 36.3898 155.883 36.4895C156.139 36.5829 156.409 36.6286 156.681 36.6243C156.897 36.6263 157.112 36.6052 157.323 36.5611C157.538 36.5217 157.747 36.4577 157.946 36.3702L158.05 36.9977C157.849 37.0831 157.644 37.1573 157.435 37.2196C157.16 37.2979 156.875 37.3328 156.589 37.3232H156.582ZM155.114 34.5119H157.381C157.386 34.3274 157.345 34.1446 157.261 33.9799C157.187 33.8269 157.063 33.7037 156.909 33.6304C156.722 33.5442 156.516 33.5034 156.31 33.5112C156.022 33.4975 155.737 33.5909 155.512 33.7736C155.298 33.9704 155.148 34.2279 155.081 34.5119H155.114Z" fill="#78909C"></path>
  <path d="M17.82 0.737947L15.793 0V39.0244H15.8038C19.2508 37.2989 22.3291 34.9006 24.8548 31.9704L24.9848 31.8077C25.9604 30.6357 26.8384 29.366 27.608 28.0529C27.7381 27.825 27.8682 27.6079 27.9982 27.3692C29.7 24.2763 30.8273 20.9013 31.3151 17.396C31.4235 16.6798 31.4885 15.9527 31.5427 15.2147C31.5862 14.6179 31.5862 13.9993 31.5862 13.3807C31.5862 11.2776 31.3736 9.22273 30.9249 7.17328C30.8598 6.86942 30.7298 6.59812 30.5455 6.34852C30.3613 6.10977 30.1336 5.91443 29.8626 5.77336C25.9496 3.87422 21.9281 2.19214 17.82 0.737947Z" fill="#246AA8"></path>
  <path d="M13.7662 0.737947L15.7932 0V39.0244H15.7824C12.3354 37.2989 9.25694 34.9006 6.73134 31.9704L6.60126 31.8077C5.6257 30.6357 4.7477 29.366 3.9781 28.0529C3.84802 27.825 3.71795 27.6079 3.58788 27.3692C1.88607 24.2763 0.758766 20.9013 0.270988 17.396C0.162593 16.6798 0.0975558 15.9527 0.043358 15.2147C0 14.6179 0 13.9993 0 13.3807C0 11.2776 0.212541 9.22272 0.66121 7.17328C0.726247 6.86942 0.856321 6.59812 1.04059 6.34852C1.22487 6.10977 1.45249 5.91443 1.72348 5.77336C5.63654 3.87422 9.658 2.19214 13.7662 0.737947Z" fill="#173A68"></path>
  <path d="M30.8347 11.969V14.3538C30.8273 14.5029 30.8113 14.6514 30.787 14.7987V15.1482C30.7837 15.1666 30.7837 15.1856 30.787 15.2041C30.7964 15.3363 30.7774 15.4689 30.7311 15.5931C30.6751 15.7205 30.5073 15.8865 30.5073 16.0774C30.5233 16.1941 30.5038 16.313 30.4513 16.4185C30.3954 16.5296 30.4513 16.6094 30.3954 16.7047C30.3477 16.9505 30.2835 17.1973 30.2276 17.4431L30.156 17.7182V17.7926L30.0845 18.086C30.0368 18.2604 29.9929 18.4273 29.9332 18.5859C29.8736 18.7447 29.8856 18.7603 29.8535 18.8483C29.7617 19.1345 29.6618 19.428 29.5664 19.7141C29.5483 19.7979 29.5174 19.8784 29.4747 19.9527C29.3151 20.3655 29.1555 20.747 28.972 21.1598L28.8043 21.5414C28.7126 21.7394 28.6126 21.9385 28.5172 22.1211L21.251 2.98828C24.0725 4.0092 26.8372 5.18066 29.5333 6.49765C29.7336 6.60514 29.9085 6.75436 30.0461 6.93523C30.1838 7.11609 30.281 7.32439 30.3312 7.54606C30.3503 7.69107 30.3809 7.83431 30.4229 7.97441C30.5146 8.40276 30.5825 8.84028 30.6384 9.27689L30.6779 9.55206C30.6688 9.73123 30.6877 9.91072 30.7338 10.0841V11.7195C30.7699 11.7495 30.798 11.788 30.8157 11.8316C30.8332 11.8751 30.8398 11.9223 30.8347 11.969Z" fill="url(#paint0_linear_2455_35010)"></path>
  <path opacity="0.6" d="M15.9205 30.1728L4.74929 20.1913L6.34505 29.7206C5.85807 29.0537 5.40319 28.3548 4.98866 27.6485C4.83734 27.3944 4.69335 27.1321 4.54937 26.8541C2.85419 23.8143 1.73811 20.4861 1.25789 17.0387C1.15151 16.3239 1.07967 15.6093 1.04238 14.8952C0.99091 14.2931 0.971014 13.6887 0.982765 13.0846C0.983848 12.1614 1.0319 11.2391 1.12674 10.3209C1.11915 10.1125 1.14077 9.90408 1.19095 9.70175V9.47977C1.28265 8.78083 1.3982 8.07456 1.55044 7.37012L15.9122 22.4541L15.9205 30.1728Z" fill="white"></path>
  <path d="M15.9199 30.1757L27.1315 20.1778L25.5311 29.707C26.0181 29.0402 26.473 28.3413 26.8875 27.635C27.0388 27.3809 27.1828 27.1185 27.3269 26.8407C29.0056 23.8085 30.1095 20.4919 30.5826 17.0582C30.6834 16.3434 30.7552 15.6289 30.798 14.9147C30.798 14.3029 30.8622 13.692 30.8622 13.1041C30.8593 12.1757 30.8088 11.248 30.7109 10.3248C30.7185 10.1165 30.6969 9.90798 30.6467 9.70565V9.48368C30.555 8.78475 30.4395 8.07847 30.2872 7.37402L15.9282 22.4572L15.9199 30.1757Z" fill="white"></path>
  <path d="M47.209 13.1567L43.9771 22.2328L40.7452 13.1567H37.5537L42.5804 26.2027H45.3656L50.4097 13.1328L47.209 13.1567Z" fill="#37474F"></path>
  <path d="M64.1016 16.3498C63.6839 15.3568 62.9956 14.5012 62.1152 13.8806C61.2477 13.3423 60.261 13.026 59.2424 12.9595C58.2237 12.893 57.2042 13.0782 56.2741 13.499C55.8191 13.742 55.389 14.0294 54.9902 14.3566L54.639 13.1496H52.0527V32.5566H55.2442V25.4103C55.5897 25.6636 55.9614 25.8789 56.3531 26.0524C57.1467 26.3563 57.9937 26.4967 58.8429 26.4652C59.9963 26.5053 61.1328 26.1801 62.0904 25.536C62.9726 24.9173 63.6615 24.0612 64.0768 23.0667C64.5618 22.014 64.8149 20.8695 64.819 19.7104C64.8232 18.5514 64.5781 17.405 64.1007 16.3489L64.1016 16.3498ZM60.6386 22.7026C60.3876 23.0668 60.0476 23.3609 59.651 23.5569C59.2544 23.7529 58.8143 23.8444 58.3724 23.8225C57.737 23.867 57.1048 23.6983 56.576 23.3431C56.0471 22.988 55.6518 22.4666 55.4524 21.8615C55.2176 21.1742 55.1044 20.4514 55.1177 19.7253C55.1049 18.9968 55.2182 18.2716 55.4524 17.5817C55.6534 17.0044 56.0267 16.5027 56.5218 16.1443C57.0666 15.7751 57.716 15.5914 58.3734 15.6206C58.8164 15.602 59.2569 15.6966 59.6533 15.8952C60.0497 16.0939 60.3891 16.3901 60.6395 16.7561C61.209 17.6386 61.488 18.6772 61.4374 19.7261C61.4845 20.7697 61.2056 21.8019 60.6395 22.6797L60.6386 22.7026Z" fill="#37474F"></path>
  <path d="M77.4023 14.6188C77.2931 14.4696 77.1729 14.3289 77.0427 14.1977C76.5963 13.7661 76.0648 13.4322 75.4821 13.2176C74.8994 13.003 74.2783 12.9122 73.6586 12.9512C72.8324 12.9358 72.0136 13.1096 71.2649 13.4594C70.8837 13.6453 70.516 13.8577 70.1644 14.095L70.1085 13.1576H67.0371V26.2036H70.3011V16.7706C70.4949 16.5465 70.7099 16.3416 70.943 16.1588C71.485 15.7762 72.1394 15.5861 72.8021 15.6186C73.1808 15.5869 73.5617 15.6501 73.9099 15.8026C74.2582 15.955 74.563 16.1919 74.7967 16.4918C75.2575 17.3162 75.4682 18.2571 75.4029 19.1995V26.2026H78.6265V18.9381C78.6959 17.4043 78.2678 15.8892 77.4059 14.6188H77.4023Z" fill="#37474F"></path>
  <path d="M67.0371 37.2269V31.0254H67.881V37.2269H67.0371ZM70.2768 37.2269L68.0104 33.9394L70.3172 31.0254H71.3464L68.9523 33.9238L71.3464 37.2259L70.2768 37.2269Z" fill="#78909C"></path>
  <path d="M73.6996 37.3207C73.2479 37.333 72.8011 37.2233 72.4064 37.0033C72.0698 36.8028 71.794 36.5146 71.6083 36.1696C71.423 35.8145 71.3285 35.419 71.3332 35.0185C71.3305 34.6331 71.4179 34.2524 71.5882 33.9068C71.7544 33.5814 72.0054 33.307 72.3146 33.1124C72.6374 32.9301 72.9986 32.8268 73.369 32.8108C73.7393 32.7949 74.1082 32.8668 74.4454 33.0207C74.7225 33.1607 74.9528 33.3789 75.1076 33.648C75.2818 33.9491 75.3676 34.293 75.3553 34.6405C75.3553 34.7038 75.3553 34.7753 75.3553 34.847V35.0689H72.1633C72.1798 35.4003 72.2784 35.7225 72.4503 36.0063C72.595 36.2174 72.7972 36.3826 73.0328 36.4824C73.2883 36.5758 73.5588 36.6215 73.8308 36.6172C74.0465 36.6192 74.2618 36.598 74.4729 36.5539C74.6871 36.5146 74.8962 36.4506 75.0957 36.3631L75.1993 36.9905C74.9965 37.0772 74.7885 37.1513 74.5765 37.2125C74.2918 37.2957 73.995 37.3308 73.6987 37.3161L73.6996 37.3207ZM72.2321 34.5094H74.5298C74.5346 34.3249 74.4937 34.1421 74.4105 33.9774C74.3365 33.8243 74.2126 33.7011 74.0592 33.6279C73.8714 33.5425 73.6664 33.5017 73.4603 33.5086C73.171 33.495 72.8869 33.5883 72.6623 33.771C72.4473 33.9679 72.298 34.2254 72.2321 34.5094Z" fill="#78909C"></path>
  <path d="M78.2647 37.3234C77.8105 37.3366 77.3612 37.2269 76.964 37.0061C76.6249 36.8087 76.3483 36.5197 76.1661 36.1722C75.9808 35.8171 75.8863 35.4217 75.8909 35.0211C75.8856 34.6363 75.9705 34.2556 76.1386 33.9094C76.3077 33.5838 76.5612 33.3095 76.8723 33.115C77.2218 32.9069 77.6232 32.8023 78.0299 32.8133C78.3643 32.8072 78.6953 32.8809 78.9957 33.0279C79.276 33.1668 79.5092 33.3849 79.6663 33.6553C79.8339 33.9587 79.9166 34.3015 79.9057 34.6478C79.9095 34.7165 79.9095 34.7855 79.9057 34.8542C79.9131 34.928 79.9131 35.0024 79.9057 35.0761H76.7137C76.7289 35.409 76.8307 35.7321 77.009 36.0136C77.152 36.2262 77.3547 36.3918 77.5914 36.4896C77.8466 36.5845 78.1173 36.6303 78.3895 36.6244C78.6012 36.6262 78.8125 36.605 79.0196 36.5612C79.2345 36.5241 79.4437 36.46 79.6425 36.3704L79.7543 36.9978C79.5514 37.0844 79.3434 37.1586 79.1315 37.2197C78.8492 37.3014 78.5555 37.3363 78.262 37.3234H78.2647ZM76.7879 34.512H79.0866C79.0938 34.3282 79.0553 34.1454 78.9747 33.98C78.8977 33.8292 78.7747 33.7068 78.6233 33.6306C78.4331 33.5447 78.2257 33.5038 78.0171 33.5113C77.7279 33.4985 77.4441 33.5917 77.219 33.7737C77.007 33.973 76.8574 34.2295 76.7879 34.512Z" fill="#78909C"></path>
  <path d="M80.7295 39.3676V32.8846H81.3523L81.4963 33.8771L81.2725 33.7183C81.4466 33.4462 81.6783 33.2158 81.9513 33.0433C82.256 32.8738 82.6006 32.7889 82.9493 32.7975C83.313 32.7889 83.6703 32.8944 83.9711 33.0992C84.256 33.3009 84.4819 33.5751 84.625 33.8936C84.7818 34.2542 84.8606 34.6441 84.8562 35.0374C84.8617 35.4292 84.7884 35.8182 84.6406 36.1812C84.502 36.4989 84.2802 36.7733 83.9986 36.9755C83.688 37.1844 83.3196 37.29 82.9456 37.2773C82.6183 37.2801 82.2952 37.2039 82.0035 37.0553C81.7287 36.9241 81.5125 36.6951 81.3973 36.4133L81.5248 36.2545V39.3273L80.7295 39.3676ZM82.796 36.604C82.9688 36.6119 83.141 36.5793 83.299 36.5089C83.4569 36.4385 83.5963 36.3323 83.706 36.1986C83.9201 35.8557 84.0337 35.4595 84.0337 35.0552C84.0337 34.6509 83.9201 34.2548 83.706 33.9119C83.5963 33.7782 83.4569 33.672 83.299 33.6016C83.141 33.5312 82.9688 33.4986 82.796 33.5064C82.5646 33.5043 82.3365 33.5618 82.1338 33.6735C81.9308 33.797 81.7674 33.9762 81.6632 34.1899C81.5361 34.4602 81.476 34.7572 81.4881 35.0557C81.4749 35.362 81.535 35.667 81.6632 35.9455C81.7704 36.1527 81.9334 36.326 82.1338 36.4454C82.3386 36.5509 82.5658 36.6054 82.796 36.604Z" fill="#78909C"></path>
  <path d="M85.6846 31.915V31.0254H86.4826V31.915H85.6846ZM85.6846 37.2277V32.8873H86.4826V37.2305L85.6846 37.2277Z" fill="#78909C"></path>
  <path d="M87.5762 37.2275V32.8844H88.199L88.3585 33.7182L88.0476 33.5906C88.2801 33.3113 88.5756 33.0912 88.9098 32.9486C89.1662 32.8567 89.4356 32.8059 89.7078 32.7982C89.9646 32.7722 90.2237 32.8087 90.4633 32.9045C90.7028 33.0003 90.9157 33.1527 91.0837 33.3485C91.3755 33.79 91.5182 34.3133 91.4909 34.8418V37.2266H90.693V34.8418C90.7242 34.4864 90.6343 34.1307 90.4379 33.8328C90.3238 33.7165 90.1848 33.6275 90.0313 33.5726C89.8778 33.5176 89.7139 33.4981 89.5519 33.5154C89.2744 33.5139 89.0007 33.5793 88.7539 33.7063C88.6337 33.7676 88.5282 33.8539 88.4442 33.9594C88.3602 34.065 88.2997 34.1872 88.2668 34.3181L88.3705 33.8338V37.2321L87.5762 37.2275Z" fill="#78909C"></path>
  <path d="M94.3445 39.4397C93.9829 39.4445 93.6225 39.3963 93.2749 39.2967C92.9953 39.2204 92.7417 39.0695 92.5412 38.86C92.4502 38.7652 92.3789 38.6532 92.3317 38.5305C92.2845 38.4078 92.2622 38.2769 92.2661 38.1455C92.26 37.9272 92.3307 37.7136 92.466 37.542C92.6153 37.3605 92.8072 37.2188 93.0246 37.1292C92.9025 37.0732 92.7937 36.9919 92.7054 36.8908C92.6345 36.8028 92.5951 36.6937 92.5935 36.5807C92.5916 36.4473 92.6368 36.3174 92.721 36.2138C92.8219 36.0891 92.9581 35.9977 93.1117 35.9515C92.871 35.8049 92.6773 35.5926 92.5531 35.3397C92.416 35.075 92.3472 34.7801 92.3532 34.4821C92.3506 34.1825 92.4249 33.8873 92.5687 33.6244C92.7143 33.3707 92.9268 33.1618 93.1832 33.0209C93.4823 32.8614 93.8176 32.7821 94.1565 32.7907C94.5401 32.7881 94.9146 32.9076 95.226 33.1319C95.3725 33.0453 95.531 32.981 95.6965 32.9411C95.8964 32.8847 96.1034 32.8579 96.311 32.8613H96.3826L96.2789 33.3933H95.8717C95.772 33.3999 95.6731 33.4159 95.5763 33.441C95.8274 33.7228 95.9641 34.0882 95.9597 34.4656C95.9653 34.7757 95.891 35.0821 95.7442 35.3553C95.5987 35.6159 95.3829 35.8305 95.1214 35.9745C94.8262 36.1369 94.4924 36.2165 94.1555 36.2046H93.8446L93.5694 36.1414C93.4337 36.1891 93.3622 36.2606 93.3622 36.3716C93.3654 36.4085 93.3782 36.444 93.3992 36.4746C93.4203 36.5051 93.4489 36.5297 93.4823 36.5459C93.5988 36.6072 93.7263 36.6449 93.8575 36.6568L95.0223 36.8403C95.4152 36.8858 95.7907 37.0275 96.1157 37.2531C96.2427 37.3521 96.344 37.4804 96.4107 37.6271C96.4775 37.7736 96.5078 37.9342 96.4991 38.0951C96.5086 38.3682 96.4145 38.635 96.2358 38.8417C96.0307 39.0569 95.7716 39.213 95.4856 39.2939C95.1139 39.3954 94.7297 39.4435 94.3445 39.437V39.4397ZM94.416 38.7335C94.7378 38.7483 95.0589 38.6942 95.3581 38.5748C95.4543 38.5423 95.5383 38.4807 95.5982 38.3986C95.6582 38.3165 95.6911 38.2179 95.6928 38.1162C95.694 38.0413 95.6754 37.9674 95.639 37.9019C95.6026 37.8363 95.5497 37.7815 95.4856 37.7429C95.3023 37.632 95.0985 37.559 94.8865 37.5282L93.6254 37.3219C93.4647 37.3887 93.3183 37.4859 93.1943 37.608C93.1369 37.6623 93.0911 37.7274 93.0596 37.7998C93.0281 37.8721 93.0115 37.9502 93.0108 38.029C93.009 38.1471 93.0442 38.2626 93.1115 38.3595C93.1788 38.4564 93.2747 38.5298 93.386 38.5693C93.7075 38.6925 94.0507 38.7493 94.3949 38.7362L94.416 38.7335ZM94.161 35.5571C94.3081 35.5687 94.4558 35.5476 94.5938 35.4955C94.7317 35.4434 94.8565 35.3613 94.959 35.2554C95.1416 35.0319 95.2353 34.7491 95.2223 34.461C95.2409 34.1721 95.1465 33.8873 94.959 33.6667C94.8561 33.5617 94.731 33.4809 94.5931 33.4301C94.455 33.3794 94.3075 33.3598 94.161 33.3731C94.0144 33.3587 93.8665 33.3776 93.7284 33.4284C93.5902 33.4793 93.4653 33.5607 93.363 33.6667C93.1756 33.8873 93.0812 34.1721 93.0998 34.461C93.0867 34.7491 93.1805 35.0319 93.363 35.2554C93.4589 35.3653 93.5783 35.4524 93.7122 35.5102C93.8462 35.5679 93.9914 35.595 94.1372 35.5892L94.161 35.5571Z" fill="#78909C"></path>
  <path d="M100.558 37.2269V34.543L98.333 31.0254H99.2901L101.15 34.0349H100.751L102.61 31.0254H103.567L101.372 34.543V37.2269H100.558Z" fill="#78909C"></path>
  <path d="M105.195 37.32C104.782 37.3311 104.376 37.2235 104.022 37.0099C103.707 36.8197 103.454 36.5443 103.289 36.2156C103.12 35.8579 103.033 35.4675 103.033 35.0723C103.033 34.677 103.12 34.2866 103.289 33.9289C103.457 33.6023 103.71 33.3277 104.022 33.1346C104.378 32.9272 104.784 32.8227 105.195 32.8328C105.605 32.8216 106.008 32.9262 106.36 33.1346C106.677 33.3253 106.934 33.6004 107.102 33.9289C107.27 34.2866 107.358 34.677 107.358 35.0723C107.358 35.4675 107.27 35.8579 107.102 36.2156C106.937 36.5464 106.679 36.8223 106.36 37.0099C106.011 37.2244 105.606 37.3322 105.195 37.32ZM105.195 36.6054C105.381 36.6167 105.568 36.586 105.741 36.5159C105.913 36.4457 106.068 36.3378 106.193 36.2C106.421 35.8625 106.544 35.4643 106.544 35.0567C106.544 34.6491 106.421 34.2509 106.193 33.9133C105.926 33.6543 105.568 33.5094 105.196 33.5094C104.823 33.5094 104.465 33.6543 104.198 33.9133C103.97 34.2509 103.848 34.6491 103.848 35.0567C103.848 35.4643 103.97 35.8625 104.198 36.2C104.324 36.3377 104.478 36.4455 104.651 36.5157C104.823 36.5858 105.01 36.6166 105.195 36.6054Z" fill="#78909C"></path>
  <path d="M109.751 37.3194C109.448 37.3264 109.148 37.2554 108.881 37.1131C108.637 36.9659 108.445 36.7467 108.33 36.4856C108.192 36.1431 108.127 35.7753 108.139 35.406V32.8809H108.937V35.1914C108.914 35.5567 108.997 35.9209 109.176 36.2398C109.263 36.3681 109.383 36.47 109.525 36.5347C109.665 36.5994 109.82 36.6243 109.974 36.6067C110.214 36.6105 110.451 36.5503 110.66 36.4325C110.876 36.3068 111.034 36.1016 111.1 35.861L110.98 36.2976V32.8809H111.778V37.224H111.059L110.9 36.3746L111.1 36.5251C110.984 36.7818 110.791 36.9963 110.548 37.1386C110.305 37.281 110.024 37.3441 109.743 37.3194H109.751Z" fill="#78909C"></path>
  <path d="M116.813 37.3203C116.547 37.3181 116.281 37.2994 116.015 37.2643C115.776 37.2296 115.539 37.1794 115.306 37.1139C115.118 37.0628 114.934 36.9991 114.756 36.9231L114.867 36.026C115.056 36.1167 115.251 36.1964 115.45 36.2646C115.691 36.3531 115.939 36.422 116.192 36.4709C116.453 36.5293 116.722 36.56 116.99 36.5626C117.324 36.58 117.655 36.5031 117.947 36.3407C118.062 36.2695 118.156 36.1683 118.217 36.0481C118.28 35.9279 118.307 35.7932 118.298 35.6582C118.308 35.4533 118.247 35.2512 118.124 35.0868C117.979 34.9173 117.796 34.7861 117.589 34.7053C117.295 34.5775 116.994 34.4688 116.688 34.3796C116.363 34.2908 116.047 34.171 115.745 34.0218C115.472 33.8979 115.234 33.709 115.05 33.4715C114.915 33.2719 114.826 33.044 114.791 32.805C114.756 32.5659 114.775 32.3221 114.849 32.0919C114.922 31.8617 115.047 31.6511 115.212 31.476C115.379 31.3009 115.583 31.1659 115.81 31.0812C116.195 30.9275 116.608 30.8544 117.023 30.8665C117.405 30.864 117.785 30.9094 118.156 31.0014C118.447 31.0696 118.73 31.168 119.002 31.2949L118.91 32.192C118.609 32.0035 118.284 31.8566 117.944 31.7554C117.631 31.673 117.309 31.6301 116.986 31.6279C116.67 31.6171 116.357 31.6882 116.076 31.8342C115.959 31.8998 115.863 31.9973 115.8 32.1154C115.735 32.2334 115.707 32.3673 115.717 32.5011C115.712 32.6849 115.771 32.8645 115.885 33.0093C116.014 33.1543 116.175 33.2685 116.355 33.3431C116.614 33.4536 116.881 33.5456 117.153 33.6183C117.544 33.7566 117.921 33.9319 118.279 34.142C118.565 34.2842 118.81 34.4942 118.997 34.7538C119.169 35.0236 119.255 35.3393 119.245 35.6591C119.25 35.9085 119.198 36.1558 119.093 36.3819C118.992 36.6001 118.833 36.7867 118.635 36.9222C118.407 37.0869 118.149 37.2056 117.876 37.2717C117.526 37.3324 117.169 37.3487 116.813 37.3203Z" fill="#78909C"></path>
  <path d="M121.074 37.3231C120.827 37.3281 120.582 37.2707 120.363 37.1562C120.174 37.0504 120.016 36.897 119.905 36.7114C119.792 36.5132 119.733 36.2883 119.737 36.0601C119.729 35.8374 119.784 35.6169 119.896 35.4245C120.009 35.2487 120.159 35.0996 120.336 34.9879C120.526 34.8726 120.73 34.7802 120.942 34.7127C121.171 34.6428 121.406 34.5925 121.644 34.5622C121.878 34.5313 122.113 34.5154 122.348 34.5145C122.364 34.3722 122.351 34.2279 122.308 34.091C122.266 33.9541 122.195 33.8278 122.1 33.7202C121.891 33.5792 121.641 33.5121 121.39 33.5294C121.214 33.5314 121.04 33.5554 120.871 33.601C120.643 33.6693 120.431 33.7768 120.24 33.9183L120.128 33.2671C120.326 33.1226 120.548 33.0125 120.783 32.9414C121.04 32.8604 121.31 32.8174 121.581 32.814C121.89 32.8014 122.198 32.8671 122.475 33.0048C122.713 33.1552 122.888 33.3864 122.969 33.656C123.084 34.0611 123.135 34.4817 123.12 34.9025V35.7363C123.107 35.9082 123.107 36.0809 123.12 36.2528C123.129 36.3661 123.177 36.473 123.256 36.5545C123.353 36.6264 123.472 36.6592 123.591 36.6462H123.671L123.544 37.2883H123.479C123.277 37.2931 123.075 37.2662 122.88 37.2085C122.756 37.1696 122.644 37.095 122.561 36.9938C122.478 36.8881 122.41 36.7703 122.361 36.6444C122.197 36.8315 122 36.987 121.779 37.103C121.563 37.2303 121.322 37.3057 121.074 37.3231ZM121.225 36.681C121.443 36.6767 121.659 36.6212 121.853 36.5191C122.046 36.417 122.214 36.2712 122.342 36.0931V35.0603C121.996 35.0647 121.65 35.1074 121.313 35.1878C121.093 35.228 120.89 35.333 120.73 35.4895C120.608 35.6363 120.543 35.8223 120.547 36.0133C120.537 36.1071 120.55 36.2017 120.583 36.2899C120.616 36.3781 120.67 36.4573 120.738 36.5214C120.875 36.6334 121.048 36.6909 121.225 36.681Z" fill="#78909C"></path>
  <path d="M124.594 37.2234V33.5076H123.867L123.979 32.8803H124.621V31.8557C124.604 31.5357 124.701 31.22 124.896 30.9659C125.015 30.8455 125.159 30.752 125.317 30.6917C125.476 30.6314 125.645 30.6057 125.814 30.6165C125.944 30.607 126.075 30.607 126.205 30.6165C126.309 30.6364 126.411 30.6671 126.508 30.7082L126.388 31.375L126.173 31.3191C126.095 31.31 126.018 31.31 125.941 31.3191C125.867 31.3152 125.792 31.3266 125.723 31.3525C125.653 31.3783 125.588 31.4181 125.535 31.4695C125.425 31.6032 125.374 31.7741 125.39 31.9455V32.9141H126.564V33.5415H125.39V37.2591L124.594 37.2234Z" fill="#78909C"></path>
  <path d="M129.245 37.321C128.79 37.3341 128.342 37.2246 127.944 37.0036C127.605 36.8063 127.328 36.5173 127.146 36.1698C126.961 35.8147 126.866 35.4192 126.871 35.0187C126.869 34.6343 126.954 34.2544 127.118 33.907C127.292 33.5577 127.563 33.2664 127.9 33.069C128.236 32.8716 128.622 32.7765 129.012 32.7953C129.346 32.7893 129.677 32.8628 129.978 33.0099C130.258 33.1488 130.491 33.3669 130.648 33.6374C130.816 33.9406 130.899 34.2834 130.888 34.6297V35.0581H127.696C127.712 35.3896 127.811 35.7117 127.983 35.9956C128.126 36.2082 128.328 36.3738 128.565 36.4716C128.821 36.5665 129.091 36.6123 129.363 36.6064C129.575 36.6082 129.786 36.587 129.993 36.5431C130.208 36.5061 130.418 36.442 130.616 36.3524L130.728 36.9798C130.525 37.0664 130.317 37.1406 130.105 37.2017C129.826 37.2886 129.535 37.3289 129.243 37.321H129.245ZM127.778 34.5096H130.076C130.081 34.3252 130.04 34.1423 129.956 33.9776C129.88 33.8267 129.756 33.7043 129.605 33.6282C129.418 33.5427 129.213 33.5019 129.006 33.5089C128.717 33.4952 128.433 33.5886 128.208 33.7712C127.993 33.9682 127.843 34.2256 127.778 34.5096Z" fill="#78909C"></path>
  <path d="M136.636 37.3221C136.078 37.3308 135.528 37.1939 135.04 36.925C134.576 36.6635 134.197 36.2749 133.946 35.8051C133.689 35.271 133.557 34.6862 133.557 34.0939C133.557 33.5016 133.689 32.9168 133.946 32.3828C134.205 31.9281 134.584 31.5521 135.04 31.2949C135.53 31.0302 136.079 30.8916 136.636 30.8916C137.193 30.8916 137.741 31.0302 138.232 31.2949C138.692 31.5609 139.07 31.9484 139.325 32.4149C139.588 32.947 139.724 33.5326 139.724 34.126C139.724 34.7195 139.588 35.305 139.325 35.8372C139.075 36.307 138.695 36.6956 138.232 36.9571C137.741 37.2176 137.191 37.3442 136.636 37.324V37.3221ZM136.636 36.5278C137.056 36.5439 137.472 36.4334 137.828 36.2104C138.147 35.9933 138.399 35.6906 138.555 35.3373C138.874 34.5559 138.874 33.6806 138.555 32.8992C138.399 32.5478 138.147 32.2476 137.828 32.0334C137.465 31.8203 137.052 31.708 136.631 31.708C136.21 31.708 135.797 31.8203 135.434 32.0334C135.111 32.2431 134.858 32.5446 134.708 32.8992C134.546 33.2854 134.463 33.6997 134.463 34.1182C134.463 34.5368 134.546 34.9511 134.708 35.3373C134.857 35.694 135.111 35.998 135.434 36.2104C135.793 36.4354 136.212 36.5455 136.636 36.5278Z" fill="#78909C"></path>
  <path d="M140.513 37.2275V32.8844H141.135L141.295 33.7182L140.984 33.5906C141.216 33.3113 141.512 33.0912 141.846 32.9486C142.102 32.856 142.372 32.8052 142.644 32.7982C142.901 32.7722 143.16 32.8087 143.4 32.9045C143.64 33.0003 143.852 33.1527 144.02 33.3485C144.312 33.79 144.454 34.3133 144.428 34.8418V37.2266H143.63V34.8418C143.658 34.4854 143.565 34.1298 143.366 33.8328C143.254 33.7162 143.117 33.6269 142.964 33.5719C142.812 33.5169 142.649 33.4976 142.488 33.5154C142.21 33.5129 141.937 33.5784 141.69 33.7063C141.57 33.7676 141.465 33.8539 141.381 33.9594C141.296 34.065 141.236 34.1872 141.203 34.3181L141.295 33.8338V37.2321L140.513 37.2275Z" fill="#78909C"></path>
  <path d="M146.608 37.3208C146.375 37.3309 146.143 37.276 145.938 37.1621C145.786 37.0693 145.664 36.9342 145.587 36.7731C145.517 36.616 145.482 36.4454 145.483 36.2732V30.5791H146.282V35.8073C146.276 35.9938 146.291 36.1804 146.328 36.3632C146.34 36.4172 146.363 36.4678 146.399 36.5106C146.434 36.5534 146.478 36.5872 146.528 36.609C146.677 36.6569 146.832 36.6783 146.988 36.6723L146.876 37.3143L146.608 37.3208Z" fill="#78909C"></path>
  <path d="M147.59 31.915V31.0254H148.388V31.915H147.59ZM147.59 37.2277V32.8873H148.388V37.2305L147.59 37.2277Z" fill="#78909C"></path>
  <path d="M149.48 37.2275V32.8844H150.104L150.263 33.7182L149.952 33.5906C150.185 33.3113 150.48 33.0912 150.814 32.9486C151.071 32.856 151.34 32.8052 151.612 32.7982C151.869 32.7722 152.128 32.8087 152.368 32.9045C152.607 33.0003 152.82 33.1527 152.988 33.3485C153.28 33.79 153.423 34.3133 153.396 34.8418V37.2266H152.598V34.8418C152.626 34.4854 152.533 34.1298 152.334 33.8328C152.222 33.7162 152.084 33.6269 151.932 33.5719C151.78 33.5169 151.617 33.4976 151.456 33.5154C151.179 33.5129 150.905 33.5784 150.658 33.7063C150.538 33.7676 150.433 33.8539 150.349 33.9594C150.265 34.065 150.204 34.1872 150.171 34.3181L150.263 33.8338V37.2321L149.48 37.2275Z" fill="#78909C"></path>
  <path d="M80.7773 26.2056L83.3305 7.94238H86.0818L90.5756 16.2801L95.0446 7.94238H97.8054L100.351 26.2056H96.856L95.2602 13.9375L90.5527 22.3624L85.8205 13.9613L84.2247 26.2056H80.7773Z" fill="#246AA8"></path>
  <path d="M108.402 26.4958C107.01 26.5517 105.629 26.2219 104.413 25.5427C103.386 24.9583 102.554 24.0858 102.019 23.0332C101.508 21.9875 101.238 20.8401 101.23 19.676C101.221 18.5119 101.475 17.3608 101.971 16.308C102.458 15.3115 103.209 14.4681 104.142 13.87C105.194 13.2327 106.408 12.9141 107.638 12.9527C108.754 12.9146 109.86 13.1898 110.829 13.747C111.648 14.2352 112.305 14.9532 112.72 15.8117C113.148 16.6977 113.363 17.6712 113.35 18.6552C113.35 18.9445 113.334 19.2336 113.302 19.5211C113.267 19.8296 113.213 20.1358 113.143 20.4384H104.716C104.806 21.1506 105.081 21.8269 105.514 22.3993C105.885 22.8882 106.377 23.2714 106.942 23.511C107.505 23.7264 108.103 23.8341 108.706 23.8284C109.427 23.8361 110.144 23.7373 110.836 23.5349C111.47 23.3438 112.078 23.0771 112.647 22.7406L112.807 25.4923C112.212 25.7917 111.586 26.0234 110.939 26.183C110.111 26.3983 109.258 26.5033 108.402 26.4958ZM104.756 18.2058H110.063C110.057 17.8014 109.981 17.401 109.838 17.0225C109.688 16.6268 109.431 16.2805 109.097 16.0218C108.687 15.7331 108.193 15.5903 107.692 15.6164C107.33 15.5975 106.967 15.6528 106.627 15.7789C106.286 15.9052 105.975 16.0995 105.713 16.3502C105.216 16.8609 104.884 17.5078 104.756 18.2085V18.2058Z" fill="#246AA8"></path>
  <path d="M114.89 26.2024V13.1639H117.938L117.995 14.0812C118.343 13.8613 118.705 13.6649 119.079 13.4932C119.827 13.1406 120.646 12.9639 121.473 12.9768C122.186 12.9237 122.901 13.0483 123.554 13.3392C124.207 13.6302 124.778 14.0786 125.216 14.6443C126.077 15.9147 126.505 17.4298 126.436 18.9636V26.1978H123.18V19.1984C123.251 18.2583 123.04 17.3185 122.574 16.4989C122.343 16.1959 122.039 15.9562 121.691 15.8021C121.341 15.648 120.959 15.5845 120.58 15.6175C119.926 15.5914 119.283 15.7852 118.752 16.1678C118.521 16.3499 118.307 16.5519 118.111 16.7714C117.895 17.0172 118.111 26.2364 118.111 26.2364L114.89 26.2024Z" fill="#246AA8"></path>
  <path d="M132.517 26.4971C131.811 26.5289 131.112 26.3521 130.506 25.9889C130.01 25.6788 129.614 25.2331 129.365 24.7048C129.122 24.1965 128.997 23.64 128.998 23.0767V15.8304H127.131L127.418 13.1621H129.014V10.3187L132.27 9.97754V13.1539H135.158V15.8221H132.27V21.7301C132.253 22.2095 132.293 22.6892 132.39 23.1592C132.417 23.2936 132.483 23.4172 132.58 23.515C132.675 23.6127 132.798 23.6803 132.933 23.7095C133.363 23.7952 133.802 23.8325 134.241 23.8205H135.135L134.848 26.4888L132.517 26.4971Z" fill="#246AA8"></path>
  <path d="M142.053 26.4981C140.771 26.5369 139.505 26.2149 138.398 25.5689C137.418 24.9733 136.62 24.119 136.092 23.0997C135.559 22.0553 135.285 20.8978 135.294 19.7252C135.285 18.545 135.559 17.3797 136.092 16.3268C136.617 15.3011 137.416 14.4407 138.399 13.8411C139.519 13.2264 140.776 12.9043 142.054 12.9043C143.331 12.9043 144.588 13.2264 145.708 13.8411C146.691 14.4407 147.49 15.3011 148.015 16.3268C148.548 17.3797 148.822 18.545 148.813 19.7252C148.822 20.8978 148.548 22.0553 148.015 23.0997C147.487 24.1191 146.689 24.9735 145.708 25.5689C144.6 26.2139 143.334 26.5358 142.053 26.4981ZM142.053 23.8299C142.541 23.8611 143.029 23.7734 143.474 23.5741C143.921 23.3748 144.312 23.0701 144.614 22.6861C145.235 21.8272 145.548 20.7832 145.5 19.7242C145.549 18.6529 145.237 17.5962 144.614 16.723C144.3 16.3616 143.912 16.0718 143.476 15.8732C143.04 15.6745 142.567 15.5718 142.088 15.5718C141.609 15.5718 141.136 15.6745 140.701 15.8732C140.265 16.0718 139.877 16.3616 139.563 16.723C138.935 17.5937 138.619 18.6516 138.669 19.7242C138.62 20.7846 138.936 21.8299 139.563 22.6861C139.859 23.0576 140.24 23.3541 140.672 23.5513C141.105 23.7486 141.578 23.8412 142.053 23.8216V23.8299Z" fill="#246AA8"></path>
  <path d="M150.198 26.2071V13.1695H153.247L153.326 14.5508C153.738 14.1192 154.211 13.75 154.73 13.4547C155.325 13.0898 156.011 12.899 156.709 12.9044C156.905 12.9028 157.1 12.9187 157.292 12.9521L157.052 16.1285C156.865 16.0748 156.672 16.0401 156.478 16.0248H155.928C155.399 16.0193 154.878 16.1477 154.412 16.3982C154.006 16.6041 153.673 16.928 153.454 17.3273V26.2071H150.198Z" fill="#246AA8"></path>
  <defs>
    <linearGradient id="paint0_linear_2455_35010" x1="30.3859" y1="8.68984" x2="25.1841" y2="9.60562" gradientUnits="userSpaceOnUse">
      <stop offset="0.03" stop-color="white" stop-opacity="0.302"></stop>
      <stop offset="0.9" stop-color="#246AA8" stop-opacity="0"></stop>
    </linearGradient>
  </defs>
</svg>
