<?xml version="1.0" encoding="UTF-8"?>
<svg xmlns="http://www.w3.org/2000/svg" width="326" height="41" viewBox="0 0 326 41" fill="none">
  <path d="M210.787 15.9226H214.819L208.631 30.5386H207.987L203.815 21.9146L199.615 30.5386H198.971L192.783 15.9226H196.815L199.671 23.3706L203.451 15.4746H204.151L207.931 23.3706L210.787 15.9226Z" fill="#43C09A"></path>
  <path d="M191.746 22.8386C191.746 23.1466 191.718 23.6506 191.69 24.0146H181.078C181.582 25.9746 183.43 27.1506 185.474 27.1506C187.266 27.1506 188.526 26.4786 189.422 25.5826L190.962 28.4386C189.702 29.5866 187.742 30.3706 185.306 30.3706C180.742 30.3706 177.438 27.2626 177.438 23.0066C177.438 18.8626 180.63 15.6426 184.774 15.6426C188.834 15.6426 191.746 18.6106 191.746 22.8386ZM184.914 18.5546C183.038 18.5546 181.638 19.5626 181.134 21.3546H188.246C187.994 19.6466 186.65 18.5546 184.914 18.5546Z" fill="#43C09A"></path>
  <path d="M172.626 13.7664C171.31 13.7664 170.246 12.7584 170.246 11.3584C170.246 10.0144 171.31 9.03443 172.626 9.00643C173.942 8.97843 175.062 9.98643 175.062 11.3584C175.062 12.7864 173.97 13.7664 172.626 13.7664ZM170.862 30.0904V15.9224H174.53V30.0904H170.862Z" fill="#43C09A"></path>
  <path d="M164.905 15.9229H169.077L161.713 30.5389H161.013L153.649 15.9229H157.849L161.377 23.7349L164.905 15.9229Z" fill="#43C09A"></path>
  <path d="M151.655 15.6426C152.047 15.6426 152.523 15.6706 152.859 15.7546V19.3946C152.467 19.1706 151.795 19.0306 151.235 19.0306C149.387 19.0306 148.267 19.9266 147.595 21.1306L147.567 30.0906H143.927V15.9226H147.651L147.455 17.5746H147.483C148.407 16.4826 149.835 15.6426 151.655 15.6426Z" fill="#43C09A"></path>
  <path d="M141.106 22.8386C141.106 23.1466 141.078 23.6506 141.05 24.0146H130.438C130.942 25.9746 132.79 27.1506 134.834 27.1506C136.626 27.1506 137.886 26.4786 138.782 25.5826L140.322 28.4386C139.062 29.5866 137.102 30.3706 134.666 30.3706C130.102 30.3706 126.798 27.2626 126.798 23.0066C126.798 18.8626 129.99 15.6426 134.134 15.6426C138.194 15.6426 141.106 18.6106 141.106 22.8386ZM134.274 18.5546C132.398 18.5546 130.998 19.5626 130.494 21.3546H137.606C137.354 19.6466 136.01 18.5546 134.274 18.5546Z" fill="#43C09A"></path>
  <path d="M121.894 15.9229H126.066L118.702 30.5389H118.002L110.638 15.9229H114.838L118.366 23.7349L121.894 15.9229Z" fill="#43C09A"></path>
  <path d="M102.418 30.3706C98.1898 30.3706 94.8018 27.3186 94.8018 23.0066C94.8018 18.7226 98.1898 15.6426 102.418 15.6426C106.674 15.6426 110.034 18.7226 110.034 23.0066C110.034 27.3186 106.674 30.3706 102.418 30.3706ZM102.418 27.0386C104.546 27.0386 106.338 25.4146 106.338 23.0066C106.338 20.5986 104.546 18.9746 102.418 18.9746C100.318 18.9746 98.4978 20.5986 98.4978 23.0066C98.4978 25.4146 100.318 27.0386 102.418 27.0386Z" fill="#43C09A"></path>
  <path d="M86.5981 15.6426C89.9861 15.6426 92.1701 18.0786 92.1701 21.6346V30.0906H88.5021V21.8586C88.5021 20.0946 87.4381 18.9466 85.8421 18.9466C84.4141 18.9466 83.3221 19.7586 82.7901 21.0466V30.0906H79.1221V15.9226H82.8461L82.6501 17.2386H82.7341C83.6301 16.2586 84.9461 15.6426 86.5981 15.6426Z" fill="#223770"></path>
  <path d="M69.1369 15.6426C73.1129 15.6426 76.1369 18.8626 76.1369 23.0066C76.1369 27.1506 73.1129 30.3706 69.1369 30.3706C67.2609 30.3706 65.9449 29.6706 65.0489 28.7466V35.3546H61.3809V15.9226H65.1049L64.9089 17.2666H65.0489C65.9449 16.3426 67.2609 15.6426 69.1369 15.6426ZM68.5489 27.0386C70.8449 27.0386 72.4409 25.3866 72.4409 23.0066C72.4409 20.5986 70.8449 18.9746 68.5489 18.9746C66.8969 18.9746 65.7209 19.7306 65.0489 20.9906V25.0226C65.7209 26.2826 66.8969 27.0386 68.5489 27.0386Z" fill="#223770"></path>
  <path d="M55.2843 15.9229H59.4563L52.0923 30.5389H51.3923L44.0283 15.9229H48.2283L51.7563 23.7349L55.2843 15.9229Z" fill="#223770"></path>
  <path d="M16.2273 40.0906C25.7727 37.4179 30.0682 30.7043 31.0227 27.6815H24.8182V20.0452H17.1818V12.4088H9.54545V4.77246H0V21.9543C0 34.1725 11.4545 38.6588 16.2273 40.0906Z" fill="#223770"></path>
  <rect x="9.5459" y="4.77246" width="7.63636" height="7.63636" fill="#2892D7"></rect>
  <rect x="17.1816" y="4.77246" width="7.63636" height="7.63636" fill="#43C09A"></rect>
  <rect x="36.2725" width="3.81818" height="3.81818" fill="#43C09A"></rect>
  <rect x="24.8184" y="12.4092" width="7.63636" height="7.63636" fill="#43C09A"></rect>
  <rect x="17.1816" y="12.4092" width="7.63636" height="7.63636" fill="#2892D7"></rect>
  <rect x="37.2275" y="6.68164" width="4.77273" height="4.77273" fill="#2892D7"></rect>
  <path d="M24.8184 27.6813V20.0449H32.4547C32.4547 21.5722 31.9775 25.7722 31.0229 27.6813H24.8184Z" fill="#2892D7"></path>
  <rect x="27.6816" y="2.86328" width="5.72727" height="5.72727" fill="#223770"></rect>
</svg>
